<?xml version="1.0" encoding="utf-8" ?><svg xmlns="http://www.w3.org/2000/svg" xmlns:xlink="http://www.w3.org/1999/xlink" width="1024" height="1024" viewBox="0 0 1024 1024"><path fill="#710401" transform="scale(2 2)" d="M314.186 76.3474C317.449 75.9997 322.404 76.6706 325.296 78.1833C352.712 92.5255 333.442 130.359 304.235 117.109C292.921 126.334 284.463 151.865 283.906 166.421C282.939 191.698 288.81 221.983 298.4 245.435C334.047 214.232 383.994 204.437 426.184 227.893C438.028 218.586 454.208 217.891 462.586 232.2C477.564 257.779 438.831 282.847 421.959 252.497C381.65 256.267 360.238 297.714 344.701 329.817C342.024 335.347 339.155 340.934 337.184 346.764C345.383 361.757 346.58 380.434 338.533 395.842C326.288 419.286 298.826 430.225 274.012 434.147C271.541 434.538 268.918 434.773 266.566 435.6L266.189 435.736C264.862 435.67 263.234 435.35 261.949 435.442C225.517 438.069 178.584 426.729 163.232 389.573C155.867 371.748 162.195 360.535 169.171 345.493C168.128 343.875 167.211 341.799 166.252 340.084C144.54 301.235 134.185 275.103 90.0721 260.581C85.443 275.276 69.5234 281 56.3034 273.204C33.2099 259.586 51.0993 216.097 84.1504 236.897C87.2515 235.402 90.1431 233.452 93.2322 231.906C127.469 214.78 159.439 222.79 191.432 238.439C198.964 182.46 234.888 113.854 293.748 99.402C293.448 87.0066 302.235 78.0896 314.186 76.3474Z"/><path fill="#FCBF49" transform="scale(2 2)" d="M167.132 361.359C173.737 341.763 182.02 335.801 201.928 328.859C236.587 316.773 278.494 316.901 312.069 332.431C319.851 336.102 330.829 343.011 333.916 351.387C348.104 370.928 335.232 400.078 317.034 412.957C279.467 439.151 202.62 439.299 173.652 398.737C165.422 387.212 163.012 374.915 167.132 361.359Z"/><path fill="#F77F00" transform="scale(2 2)" d="M333.916 351.387C348.104 370.928 335.232 400.078 317.034 412.957C279.467 439.151 202.62 439.299 173.652 398.737C165.422 387.212 163.012 374.915 167.132 361.359C168.475 364.484 169.075 367.824 169.997 371.101C179.54 405.009 211.594 417.602 244.472 419.634C282.295 422.04 331.813 408.893 333.893 363.446C334.071 359.554 333.675 355.387 333.897 351.663L333.916 351.387Z"/><path fill="#710401" transform="scale(2 2)" d="M248.741 354.39C259.791 352.613 270.187 360.14 271.949 371.193C273.711 382.246 266.17 392.632 255.114 394.378C244.08 396.121 233.72 388.598 231.961 377.566C230.203 366.535 237.712 356.164 248.741 354.39Z"/><path fill="#D62828" transform="scale(2 2)" d="M249.636 358.883C258.225 357.435 266.351 363.258 267.74 371.857C269.129 380.456 263.25 388.542 254.641 389.871C246.117 391.188 238.127 385.378 236.751 376.862C235.376 368.347 241.13 360.317 249.636 358.883Z"/><path fill="#710401" transform="scale(2 2)" d="M300.828 384.158C305.124 384.931 303.91 387.65 301.595 390.068C275.125 417.518 233.508 417.232 205.824 391.42C201.395 387.219 204.468 383.518 208.777 387.817C230.153 409.143 264.843 411.735 289.422 394.396C293.656 391.409 296.894 387.55 300.828 384.158Z"/><path fill="#D62828" transform="scale(2 2)" d="M215.381 344.321C219.799 343.272 224.228 346.009 225.266 350.429C226.305 354.849 223.557 359.272 219.135 360.3C214.727 361.325 210.322 358.588 209.287 354.183C208.252 349.777 210.978 345.366 215.381 344.321Z"/><path fill="#D62828" transform="scale(2 2)" d="M288.287 344.464C292.576 344.049 296.393 347.179 296.825 351.466C297.257 355.753 294.142 359.582 289.857 360.031C285.548 360.482 281.694 357.345 281.259 353.035C280.824 348.725 283.976 344.882 288.287 344.464Z"/><path fill="#D62828" transform="scale(2 2)" d="M195.689 241.333C201.534 188.345 238.295 116.061 294.728 103.803C295.444 105.921 296.046 107.504 296.93 109.558C297.997 110.884 299.05 112.218 300.173 113.497C297.172 117.662 294.208 120.872 291.573 125.448C268.281 165.895 281.967 216.009 297.399 256.685C300.256 264.216 303.97 271.472 306.797 279.037C296.844 273.283 285.32 273.328 276.814 282.1C267.847 262.167 242.651 261.436 232.939 282.1C222.021 268.523 199.622 273.186 194.661 290.031C187.696 313.683 195.269 243.127 195.689 241.333Z"/><path fill="#FCBF49" transform="scale(2 2)" d="M195.689 241.333C201.534 188.345 238.295 116.061 294.728 103.803C295.444 105.921 296.046 107.504 296.93 109.558C296.88 109.612 296.83 109.667 296.781 109.721C244.153 129.365 212.813 182.433 204.697 236.004C204.119 239.823 200.444 242.884 196.465 241.589L195.995 241.439C195.893 241.404 195.791 241.368 195.689 241.333Z"/><path fill="#2187AE" transform="scale(2 2)" d="M252.415 271.828C279.41 269.928 270.7 304.398 278.837 287.865C286.137 273.033 309.881 279.087 310.589 296.112C311.076 307.811 310.849 302.518 318.742 299.658C328.339 296.179 338.116 300.663 342.01 310.049C346.718 321.395 338.184 331.958 333.916 342.152C310.655 322.149 284.951 315.804 254.166 315.751C227.341 315.478 192.646 322.335 171.947 340.6C166.236 330.813 164.416 328.794 163.4 317.844C162.09 303.73 177.924 291.508 190.715 299.083C202.169 305.866 196.385 300.507 198.764 292.523C203.489 275.73 225.757 273.699 232.743 290.887C233.325 292.319 236.193 291.234 236.29 290.369C237.409 280.356 241.601 273.508 252.415 271.828Z"/><path fill="#F77F00" transform="scale(2 2)" d="M300.173 250.332C306.498 242.886 325.655 232.295 334.969 228.466C357.704 219.121 381.298 215.869 405.118 223.394C412.439 225.707 416.888 228.487 423.579 231.26C422.715 233.18 421.913 234.883 421.264 236.897C420.231 241.121 420.042 243.739 421.264 247.931C383.353 250.827 364.468 283.712 347.915 312.831C343.337 299.453 334.163 291.089 319.049 294.449C314.738 282.806 305.824 268.998 302.678 257.501C301.565 254.935 300.856 253.031 300.173 250.332Z"/><path fill="#FCBF49" transform="scale(2 2)" d="M300.173 250.332C306.498 242.886 325.655 232.295 334.969 228.466C357.704 219.121 381.298 215.869 405.118 223.394C412.439 225.707 416.888 228.487 423.579 231.26C422.715 233.18 421.913 234.883 421.264 236.897C416.799 236.661 400.17 230.128 392.389 228.919C363.392 224.417 335.053 234.068 311.532 250.822C308.816 252.757 305.53 256.077 302.678 257.501C301.565 254.935 300.856 253.031 300.173 250.332Z"/><path fill="#F77F00" transform="scale(2 2)" d="M86.9631 241.333C114.511 218.277 161.769 227.286 190.646 243.126C190.152 246.335 189.741 249.27 189.393 252.497C187.251 262.802 186.732 282.216 186.725 292.584C169.439 290.919 159.722 301.056 158.91 317.823C158.396 316.598 157.641 314.987 156.998 313.835C140.294 283.935 123.781 265.787 90.9918 256.062C90.9835 252.053 90.846 250.152 90.0721 246.23C89.093 244.187 88.4786 243.087 86.9631 241.333Z"/><path fill="#FCBF49" transform="scale(2 2)" d="M86.9631 241.333C114.511 218.277 161.769 227.286 190.646 243.126C190.152 246.335 189.741 249.27 189.393 252.497C186.731 251.188 184.397 249.122 180.69 247.401C155.135 235.535 122.143 231.072 95.8814 243.512C93.9121 244.445 92.1394 245.491 90.0721 246.23C89.093 244.187 88.4786 243.087 86.9631 241.333Z"/><path fill="#FCBF49" transform="scale(2 2)" d="M66.2287 235.969C76.0537 234.764 85.01 241.713 86.2842 251.529C87.5585 261.346 80.6732 270.351 70.8662 271.695C60.9604 273.052 51.8444 266.082 50.5574 256.167C49.2703 246.252 56.3046 237.185 66.2287 235.969Z"/><path fill="#FCBF49" transform="scale(2 2)" d="M442.268 225.826C452.12 225.433 460.437 233.075 460.878 242.925C461.318 252.774 453.716 261.128 443.869 261.616C433.954 262.108 425.53 254.442 425.086 244.525C424.643 234.608 432.349 226.221 442.268 225.826Z"/><path fill="#FCBF49" transform="scale(2 2)" d="M316.181 80.6243C325.829 80.6714 333.621 88.5138 333.605 98.1616C333.59 107.809 325.773 115.627 316.125 115.643C306.433 115.66 298.571 107.799 298.586 98.1058C298.602 88.413 306.488 80.577 316.181 80.6243Z"/></svg>