<?xml version="1.0" encoding="utf-8" ?><svg xmlns="http://www.w3.org/2000/svg" xmlns:xlink="http://www.w3.org/1999/xlink" width="1024" height="1024" viewBox="0 0 1024 1024"><defs><linearGradient id="gradient_0" gradientUnits="userSpaceOnUse" x1="170.34485" y1="471.40106" x2="354.34784" y2="73.437767"><stop offset="0" stop-color="#002C55"/><stop offset="1" stop-color="#1D4359"/></linearGradient></defs><path fill="url(#gradient_0)" transform="scale(2 2)" d="M352.038 76.653C378.327 73.6622 395.224 103.933 378.445 124.723C376.963 126.558 375.081 127.881 373.541 129.54L373.278 129.826C374.779 131.766 376.632 134.31 378.315 136.018C388.349 136.347 398.658 135.777 408.721 135.997C424.975 136.352 436.425 135.892 436.242 156.658L436.253 409.853C436.246 429.472 434.573 434.754 414.105 434.756L160.313 434.748L113.786 434.735C97.4562 434.735 76.7481 438.644 76.5272 416.371L76.4895 160.643C76.4016 140.33 79.9242 136.049 100.521 136.018L333.364 136.018C334.731 133.969 336.475 131.799 337.99 129.826C316.291 112.649 325.049 80.0363 352.038 76.653Z"/><path fill="#AD0C0A" transform="scale(2 2)" d="M378.315 144.503L407.611 144.488C426.281 144.482 428.097 143.071 428.051 162.891L428.042 233.776C428.032 236.342 427.963 239.149 428.042 241.696L428.042 330.544C427.939 333.183 427.783 335.653 428.042 338.291L428.055 410.62C428.077 425.98 427.778 427.132 412.286 427.145L350.072 427.14C347.207 427.258 345.138 427.252 342.277 427.14L265.581 427.14C261.861 427.326 255.465 427.378 251.758 427.14C248.179 426.927 242.499 427.125 238.747 427.127L212.629 427.14L120.088 427.15C116.149 427.152 111.242 427.292 107.375 427.14C90.4503 427.161 84.7019 430.84 84.7249 410.708L84.7396 338.291L84.7396 330.544L84.7396 241.696C84.6485 238.871 84.5605 236.603 84.7396 233.776L84.7128 160.702C84.6606 145.779 85.5078 144.504 100.449 144.497L162.186 144.503C164.822 144.437 167.066 144.412 169.716 144.503L251.758 144.503C254.5 144.421 256.983 144.307 259.727 144.503L332.382 144.503C334.121 149.562 336.573 151.715 341.439 153.708C338.357 169.211 331.123 186.301 322.718 199.725C318.604 206.296 316.054 211.818 320.74 219.181C325.524 226.582 334.855 225.483 342.695 225.476L372.829 225.494C375.817 225.503 378.585 225.582 381.58 225.3C390.419 224.512 396.622 214.683 392.947 206.423C391.263 202.638 388.77 199.358 386.673 195.793C378.814 182.426 373.653 168.736 370.066 153.708C374.285 150.641 376.097 149.443 378.315 144.503Z"/><path fill="#FDA525" transform="scale(2 2)" d="M378.315 144.503L407.611 144.488C426.281 144.482 428.097 143.071 428.051 162.891L428.042 233.776L259.727 233.776L259.727 144.503L332.382 144.503C334.121 149.562 336.573 151.715 341.439 153.708C338.357 169.211 331.123 186.301 322.718 199.725C318.604 206.296 316.054 211.818 320.74 219.181C325.524 226.582 334.855 225.483 342.695 225.476L372.829 225.494C375.817 225.503 378.585 225.582 381.58 225.3C390.419 224.512 396.622 214.683 392.947 206.423C391.263 202.638 388.77 199.358 386.673 195.793C378.814 182.426 373.653 168.736 370.066 153.708C374.285 150.641 376.097 149.443 378.315 144.503Z"/><path fill="#AD0C0A" transform="scale(2 2)" d="M297.512 170.301C305.884 169.005 313.729 174.719 315.064 183.084C316.4 191.45 310.723 199.323 302.363 200.697C293.948 202.081 286.012 196.358 284.668 187.936C283.324 179.514 289.084 171.605 297.512 170.301Z"/><path fill="#B61425" transform="scale(2 2)" d="M298.436 176.148C303.508 175.37 308.258 178.83 309.071 183.897C309.885 188.964 306.457 193.737 301.397 194.586C296.286 195.443 291.455 191.974 290.633 186.858C289.812 181.741 293.314 176.934 298.436 176.148Z"/><path fill="#FDA525" transform="scale(2 2)" d="M259.727 338.291L342.277 338.291L342.298 416.725C342.309 419.907 342.467 424.057 342.277 427.14L265.581 427.14C263.604 427.113 261.704 427.109 259.727 427.14L259.727 338.291Z"/><path fill="#AD0C0A" transform="scale(2 2)" d="M298.594 370.647C307.485 370.172 315.099 376.949 315.657 385.836C316.215 394.722 309.51 402.399 300.629 403.04C291.63 403.69 283.828 396.876 283.262 387.871C282.697 378.866 289.584 371.128 298.594 370.647Z"/><path fill="#B61425" transform="scale(2 2)" d="M299.098 376.462C304.774 376.268 309.538 380.701 309.752 386.376C309.966 392.052 305.549 396.831 299.875 397.065C294.172 397.3 289.364 392.856 289.149 387.153C288.934 381.45 293.394 376.657 299.098 376.462Z"/><path fill="#F77F00" transform="scale(2 2)" d="M169.716 144.503L251.758 144.503C251.456 153.648 251.751 164.815 251.752 174.102L251.758 233.776L169.716 233.776L169.716 144.503Z"/><path fill="#003049" transform="scale(2 2)" d="M209.049 170.116C217.794 169.064 225.738 175.296 226.798 184.04C227.858 192.784 221.633 200.734 212.89 201.802C204.135 202.871 196.173 196.637 195.112 187.881C194.05 179.126 200.292 171.169 209.049 170.116Z"/><path fill="#FCBF49" transform="scale(2 2)" d="M209.416 175.074C215.476 174.168 221.124 178.342 222.037 184.401C222.95 190.46 218.782 196.113 212.725 197.033C206.657 197.954 200.992 193.778 200.078 187.709C199.163 181.64 203.346 175.981 209.416 175.074Z"/><path fill="#F77F00" transform="scale(2 2)" d="M169.716 338.291L251.758 338.291L251.758 427.14C248.179 426.927 242.499 427.125 238.747 427.127L212.629 427.14C198.764 426.75 183.718 427.273 169.716 427.14L169.716 338.291Z"/><path fill="#003049" transform="scale(2 2)" d="M209.693 370.437C218.433 369.572 226.223 375.947 227.104 384.686C227.984 393.424 221.623 401.226 212.885 402.121C204.127 403.019 196.302 396.639 195.42 387.879C194.537 379.119 200.931 371.305 209.693 370.437Z"/><path fill="#FCBF49" transform="scale(2 2)" d="M210.069 375.183C216.178 374.551 221.659 378.952 222.36 385.053C223.061 391.154 218.722 396.684 212.629 397.453C208.626 397.959 204.661 396.274 202.246 393.042C199.831 389.81 199.339 385.53 200.958 381.835C202.576 378.139 206.056 375.599 210.069 375.183Z"/><path fill="#FDA525" transform="scale(2 2)" d="M350.072 241.696L428.042 241.696L428.042 330.544L350.072 330.544L350.072 241.696Z"/><path fill="#AD0C0A" transform="scale(2 2)" d="M388.519 271.817C396.823 270.449 404.672 276.045 406.087 284.341C407.502 292.637 401.95 300.518 393.662 301.979C385.308 303.452 377.351 297.846 375.925 289.484C374.499 281.122 380.149 273.196 388.519 271.817Z"/><path fill="#B61425" transform="scale(2 2)" d="M389.247 277.943C394.132 276.924 398.928 280.03 399.995 284.905C401.062 289.781 398.003 294.607 393.138 295.721C388.205 296.851 383.298 293.74 382.216 288.797C381.134 283.854 384.293 278.977 389.247 277.943Z"/><path fill="#F77F00" transform="scale(2 2)" d="M350.072 338.291L428.042 338.291L428.055 410.62C428.077 425.98 427.778 427.132 412.286 427.145L350.072 427.14L350.072 338.291Z"/><path fill="#003049" transform="scale(2 2)" d="M389.963 369.395C399.031 368.86 406.814 375.781 407.342 384.85C407.869 393.918 400.941 401.695 391.872 402.215C382.814 402.735 375.049 395.817 374.522 386.759C373.995 377.702 380.906 369.93 389.963 369.395Z"/><path fill="#FCBF49" transform="scale(2 2)" d="M390.301 374.596C396.427 374.478 401.499 379.326 401.658 385.451C401.816 391.575 397.001 396.679 390.877 396.877C384.697 397.076 379.537 392.207 379.377 386.026C379.217 379.846 384.119 374.716 390.301 374.596Z"/><path fill="#FDA525" transform="scale(2 2)" d="M84.7396 233.776L84.7128 160.702C84.6606 145.779 85.5078 144.504 100.449 144.497L162.186 144.503C162.441 155.438 162.179 167.301 162.181 178.318L162.186 233.776L110.827 233.769C102.402 233.768 93.0683 233.563 84.7396 233.776Z"/><path fill="#003049" transform="scale(2 2)" d="M119.828 170.282C128.651 169.01 136.832 175.138 138.093 183.962C139.354 192.786 133.216 200.959 124.39 202.209C115.58 203.457 107.425 197.332 106.166 188.524C104.907 179.715 111.022 171.552 119.828 170.282Z"/><path fill="#FCBF49" transform="scale(2 2)" d="M121.822 175.036C127.949 174.891 133.054 179.7 133.273 185.825C133.492 191.95 128.745 197.113 122.623 197.406C118.597 197.599 114.778 195.612 112.625 192.204C110.472 188.796 110.318 184.494 112.221 180.94C114.125 177.387 117.792 175.132 121.822 175.036Z"/><path fill="#F77F00" transform="scale(2 2)" d="M84.7396 241.696L133.985 241.696C142.842 241.692 153.441 241.393 162.186 241.696L162.186 330.544L84.7396 330.544L84.7396 241.696Z"/><path fill="#003049" transform="scale(2 2)" d="M120.417 271.294C129.154 270.417 136.951 276.782 137.841 285.518C138.731 294.254 132.379 302.06 123.645 302.964C114.891 303.87 107.063 297.501 106.171 288.745C105.278 279.99 111.66 272.172 120.417 271.294Z"/><path fill="#FCBF49" transform="scale(2 2)" d="M120.142 276.315C126.185 275.25 131.942 279.305 132.975 285.354C134.008 291.403 129.924 297.138 123.87 298.141C117.86 299.135 112.175 295.087 111.149 289.082C110.123 283.077 114.142 277.372 120.142 276.315Z"/><path fill="#FDA525" transform="scale(2 2)" d="M84.7396 338.291L162.186 338.291L162.186 427.14L125.495 427.129C120.5 427.127 112.146 426.853 107.375 427.14C90.4503 427.161 84.7019 430.84 84.7249 410.708L84.7396 338.291Z"/><path fill="#AD0C0A" transform="scale(2 2)" d="M120.804 369.977C129.881 369.555 137.618 376.493 138.184 385.563C138.75 394.632 131.936 402.478 122.876 403.188C116.887 403.658 111.109 400.862 107.761 395.874C104.412 390.886 104.012 384.48 106.715 379.114C109.417 373.748 114.802 370.256 120.804 369.977Z"/><path fill="#B61425" transform="scale(2 2)" d="M119.938 376.316C125.587 375.395 130.908 379.245 131.799 384.899C132.691 390.554 128.813 395.854 123.154 396.716C117.537 397.571 112.284 393.728 111.399 388.116C110.514 382.503 114.33 377.23 119.938 376.316Z"/><path fill="#F77F00" transform="scale(2 2)" d="M259.727 241.696L342.277 241.696C342.274 271.084 342.631 301.204 342.277 330.544L259.727 330.544L259.727 241.696Z"/><path fill="#003049" transform="scale(2 2)" d="M298.487 271.589C307.24 270.606 315.127 276.918 316.086 285.673C317.046 294.428 310.713 302.298 301.955 303.233C293.231 304.165 285.398 297.861 284.442 289.14C283.487 280.419 289.769 272.569 298.487 271.589Z"/><path fill="#FCBF49" transform="scale(2 2)" d="M298.218 276.576C304.257 275.462 310.052 279.465 311.148 285.507C312.245 291.549 308.226 297.332 302.181 298.412C296.16 299.487 290.404 295.487 289.312 289.469C288.22 283.452 292.203 277.685 298.218 276.576Z"/><path fill="#FDA525" transform="scale(2 2)" d="M169.716 241.696L251.758 241.696C251.758 250.052 251.943 330.168 251.758 330.544L169.716 330.544L169.724 249.604C169.721 246.988 169.432 244.505 169.382 241.955L169.716 241.696Z"/><path fill="#003049" transform="scale(2 2)" d="M220.196 286.637C226.909 285.643 233.172 290.234 234.245 296.935C235.318 303.635 230.801 309.952 224.113 311.104C219.717 311.861 215.253 310.196 212.426 306.744C209.599 303.293 208.846 298.589 210.454 294.427C212.062 290.266 215.783 287.291 220.196 286.637Z"/><path fill="#FFE9BD" transform="scale(2 2)" d="M220.94 291.48C225.097 290.901 228.93 293.817 229.482 297.977C230.033 302.138 227.093 305.952 222.929 306.476C218.804 306.995 215.033 304.088 214.486 299.966C213.939 295.844 216.822 292.054 220.94 291.48Z"/><path fill="#003049" transform="scale(2 2)" d="M196.019 265.591C202.785 265.428 208.421 270.742 208.656 277.506C208.89 284.27 203.635 289.962 196.874 290.268C192.436 290.469 188.233 288.27 185.867 284.51C183.501 280.751 183.337 276.01 185.437 272.096C187.537 268.182 191.578 265.698 196.019 265.591Z"/><path fill="#FFE9BD" transform="scale(2 2)" d="M195.315 270.495C199.337 269.94 203.051 272.744 203.618 276.765C204.186 280.787 201.393 284.509 197.374 285.089C193.336 285.671 189.594 282.863 189.024 278.824C188.454 274.785 191.274 271.052 195.315 270.495Z"/><path fill="#D62828" transform="scale(2 2)" d="M346.122 153.708L365.161 153.708C368.777 173.628 377.439 190.73 388.273 207.375C391.27 211.98 387.358 219.57 382.187 220.503C377.606 221.33 371.435 220.827 366.543 220.814L343.586 220.829C339.439 220.83 334.958 220.973 330.864 220.562C326.422 220.347 321.475 213.733 323.071 209.51C324.747 205.074 328.124 200.383 330.514 196.128C337.941 182.898 343.626 168.783 346.122 153.708Z"/><path fill="#FCBF49" transform="scale(2 2)" d="M353.663 81.0895C367.314 80.112 379.184 90.3598 380.208 104.007C381.232 117.654 371.025 129.559 357.382 130.63C343.672 131.706 331.697 121.438 330.667 107.725C329.638 94.0117 339.947 82.0718 353.663 81.0895Z"/><path fill="#D62828" transform="scale(2 2)" d="M369.009 132.063C369.701 132.694 372.433 136.496 372.787 137.382C379.344 153.774 351.649 147.974 343.568 148.684C342.929 148.74 341.278 148.09 340.603 147.795C333.109 142.496 337.716 137.028 342.277 132.063C350.025 136.121 361.217 135.984 369.009 132.063Z"/></svg>