<?xml version="1.0" encoding="utf-8" ?><svg xmlns="http://www.w3.org/2000/svg" xmlns:xlink="http://www.w3.org/1999/xlink" width="1024" height="1024" viewBox="0 0 1024 1024"><path fill="#022F4A" transform="scale(2 2)" d="M338.734 88.1276L368.122 88.1848C377.119 88.2235 389.445 87.806 398.005 89.449C405.726 90.9309 403.968 112.588 403.955 118.256L403.943 144.15L403.782 231.467L403.66 306.992C403.686 321.19 404.232 335.486 403.708 349.67C403.615 352.21 403.446 354.894 402.432 357.261C401.577 359.255 400.056 360.626 398.033 361.392C392.226 363.592 362.342 362.724 355.699 361.843C353.556 361.559 351.805 361.09 349.817 360.231C346.19 355.515 347.19 344.515 347.527 338.538C342.994 338.379 337.528 338.53 332.93 338.544L308.073 338.525L191.5 338.626C172.333 338.658 150.787 339.248 131.872 338.549C129.024 338.475 125.117 338.63 122.447 338.194C122.952 344.836 123.396 353.671 119.051 359.293C118.183 360.416 117.253 360.905 115.887 361.189C111.196 362.167 105.828 362.018 101.058 361.98C91.7207 361.906 82.3292 362.309 73.0434 361.42C71.8575 361.306 69.9401 360.221 69.0704 359.415C66.1772 356.81 65.5353 352.523 65.3184 348.832C65.1898 343.739 65.2974 338.428 65.3006 333.288L65.3039 302.981L65.2972 210.945L65.27 136.678L65.206 113.942C65.1772 107.651 64.0146 96.8913 68.2974 91.961C69.7859 90.2474 73.2186 88.708 75.5154 88.553C84.9555 87.9156 94.533 88.183 104.002 88.2177L152.205 88.2342L272.724 88.2343C294.486 88.2342 317.062 88.5302 338.734 88.1276ZM122.468 301.972L122.462 332.234L171.812 332.233L347.834 332.278C348.185 328.969 348.259 303.309 347.5 302.294C344.868 301.794 334.265 301.923 330.998 301.945C320.586 302.017 309.982 301.758 299.595 301.876L179.778 301.938L140.794 301.942C135.198 301.944 127.833 302.226 122.468 301.972ZM122.538 95.5468C122.516 101.556 122.267 110.256 122.602 116.032C127.818 116.297 133.951 116.005 139.28 116.029C153.314 116.093 167.376 115.602 181.41 115.717C234.025 116.367 286.644 116.539 339.262 116.234C342.186 116.238 345.339 116.298 348.244 116.231C348.306 110.173 347.959 100.853 348.354 95.2386C325.841 96.1563 300.392 95.2852 277.757 95.2224L131.803 95.1211C128.665 95.2154 125.67 95.2976 122.538 95.5468Z"/><path fill="#FA7E01" transform="scale(2 2)" d="M141.769 123.615C163.686 122.995 187.77 123.561 209.794 123.586L348.348 123.577C347.91 137.703 348.249 152.698 348.265 166.876L348.099 246.542L347.923 284.942C347.877 288.517 348.013 291.957 347.902 295.56C342.828 295.766 334.648 295.39 329.188 295.393L122.478 295.244L122.492 123.609C128.644 123.854 135.624 123.784 141.769 123.615Z"/><path fill="#DC2828" transform="scale(2 2)" d="M230.552 146.553C265.826 143.679 296.762 169.921 299.679 205.192C302.597 240.463 276.394 271.432 241.126 274.393C205.797 277.36 174.761 251.101 171.839 215.767C168.916 180.434 195.214 149.431 230.552 146.553Z"/><path fill="#FEBE4D" transform="scale(2 2)" d="M232.898 154.062C264.112 152.438 290.723 176.448 292.306 207.664C293.889 238.881 269.845 265.46 238.626 267.002C207.465 268.542 180.946 244.551 179.366 213.393C177.785 182.234 201.741 155.683 232.898 154.062Z"/><path fill="#022F4A" transform="scale(2 2)" d="M216.246 170.463C219.699 171.412 223.395 173.781 226.53 175.533C234.978 180.254 243.142 185.491 251.439 190.47C256 193.207 275.392 203.88 277.794 206.871C278.474 207.718 278.806 208.635 278.631 209.723C277.809 214.851 257.995 225.313 253.393 228.06C248.264 231.009 219.465 249.403 215.411 249.137C214.759 249.095 214.299 248.709 213.916 248.209C212.103 245.843 211.723 242.036 211.501 239.163C210.855 230.785 211.857 222.342 211.905 213.952L212.02 188.434C212.018 184.553 211.815 176.678 212.265 173.037C213.81 171.879 214.557 171.401 216.246 170.463Z"/><path fill="#DC2828" transform="scale(2 2)" d="M218.186 178.023C220.429 178.869 230.396 185.588 232.988 187.124C246.019 194.845 259.014 202.186 271.649 210.568C265.011 213.243 256.768 218.439 250.591 222.172C244.923 225.358 239.302 228.592 233.748 231.974C228.607 235.106 223.354 238.885 218.153 241.793C217.853 227.493 218.341 212.851 218.294 198.519C218.264 194.467 218.192 190.416 218.078 186.365C218.032 184.439 217.841 179.755 218.186 178.023Z"/><path fill="#1585B0" transform="scale(2 2)" d="M76.4919 95.3025C82.6112 94.9688 90.5196 95.2183 96.7912 95.2077C102.469 95.1982 110.442 95.0387 115.951 95.4815C115.59 116.451 115.893 138.202 115.885 159.254L115.893 285.541C115.896 294.724 115.918 304.836 115.961 313.906C116.003 323.016 117.267 345.963 114.815 353.972C114.029 354.41 113.16 354.772 112.333 355.139C105.966 355.731 77.7336 356.618 73.6405 354.503C72.8612 354.101 72.5745 353.115 72.3615 352.315C70.6767 345.977 71.4374 335.91 71.4725 329.193L71.7295 292.318L71.7337 139.162L71.6784 116.241C71.6472 111.027 71.5833 105.712 71.9623 100.516C72.2087 97.1376 73.393 95.9963 76.4919 95.3025Z"/><path fill="#022F4A" transform="scale(2 2)" d="M88.2704 229.395C93.2782 229.151 105.584 228.47 109.561 231.573C112.785 234.088 112.301 245.571 112.105 249.63C111.882 254.255 111.292 260.099 107.922 263.708C105.11 263.999 102.288 264.193 99.4624 264.289C91.9885 264.862 85.6081 265.356 78.9728 261.551C77.7427 258.877 76.6159 254.467 76.5753 251.505C76.4952 245.66 75.3418 229.352 84.2319 229.513C85.487 229.535 86.9937 229.441 88.2704 229.395Z"/><path fill="#FA7E01" transform="scale(2 2)" d="M83.5854 236.404C90.5842 236.404 97.678 236.462 104.669 236.371C104.846 240.385 104.719 244.825 104.789 248.871C104.823 250.78 104.892 255.683 104.608 257.388L83.7737 257.369C83.6253 250.255 83.5835 243.521 83.5854 236.404Z"/><path fill="#022F4A" transform="scale(2 2)" d="M85.6772 273.605C93.3951 273.27 101.127 273.489 108.814 274.261C111.021 282.782 114.473 298.074 108.601 306.182C107.433 307.793 105.137 307.753 103.278 307.856C102.894 307.881 102.51 307.9 102.125 307.911C95.858 308.098 89.3516 308.352 83.1248 307.741C75.7776 307.021 77.2196 298.029 77.2276 292.651L77.2566 276.441C80.3977 274.377 81.9837 273.813 85.6772 273.605Z"/><path fill="#FA7E01" transform="scale(2 2)" d="M104.101 280.409L104.402 280.365L104.735 280.627C104.989 286.844 104.787 295.109 104.445 301.265L84.0634 301.232C83.3218 300.372 83.392 295.088 83.3444 293.726C83.183 289.108 83.5581 284.947 84.7479 280.478C91.0291 280.58 97.7347 280.384 104.101 280.409Z"/><path fill="#022F4A" transform="scale(2 2)" d="M94.5814 98.6243C111.957 98.2734 111.288 100.769 111.243 116.432C111.19 134.968 110.122 133.162 92.9237 133.117C89.3727 133.061 83.4173 133.166 80.0964 131.964C79.1254 131.612 78.3805 130.088 78.0955 129.13C76.1534 122.607 75.8223 106.325 78.7996 100.422C82.0416 98.8128 90.7535 98.776 94.5814 98.6243Z"/><path fill="#FA7E01" transform="scale(2 2)" d="M83.7438 105.233C90.5229 105.393 97.958 105.272 104.781 105.236C104.655 112.389 104.763 119.858 104.762 127.035C97.9798 126.73 90.5903 126.893 83.7743 126.93C83.6243 119.836 83.7422 112.357 83.7438 105.233Z"/><path fill="#022F4A" transform="scale(2 2)" d="M88.9751 142.869C95.4704 142.756 102.104 143.163 108.6 143.51C111.711 148.778 111.346 152.265 111.339 158.249C111.353 161.089 111.352 163.93 111.335 166.771C111.283 170.691 111.206 173.495 108.34 176.271C105.55 176.861 102.305 176.909 99.4353 176.995C90.4643 177.176 85.8982 177.442 77.4023 174.347C76.7784 168.206 76.0047 149.701 78.7818 144.502C81.8992 142.792 85.4625 142.97 88.9751 142.869Z"/><path fill="#FA7E01" transform="scale(2 2)" d="M88.0733 149.131C93.8115 149.019 99.3445 149.264 105.052 149.241L104.759 170.543L100.375 170.509L83.7471 170.529L83.7436 149.233L88.0733 149.131Z"/><path fill="#022F4A" transform="scale(2 2)" d="M84.7831 186.608C88.715 186.493 92.6487 186.453 96.5821 186.486C99.3531 186.506 107.466 186.564 108.887 188.572C112.634 193.87 111.047 212.022 110.638 218.127C107.824 220.019 106.684 220.19 103.365 220.354C93.8047 220.534 87.8113 220.747 78.4342 219.078C76.8393 213.23 76.7519 204.651 76.8928 198.515C77.0561 191.399 76.9274 187.208 84.7831 186.608Z"/><path fill="#FA7E01" transform="scale(2 2)" d="M83.7377 192.727L104.78 192.728C104.652 199.71 104.761 207.027 104.758 214.036C97.9843 213.727 90.5801 213.893 83.771 213.933C83.6386 206.973 83.7397 199.709 83.7377 192.727Z"/><path fill="#022F4A" transform="scale(2 2)" d="M85.6041 317.604C90.5648 317.359 105.665 316.864 108.939 319.383C112.012 321.747 112.519 345.381 109.334 349.244C108.074 350.772 104.011 350.715 102.188 350.767C97.4244 350.929 82.8211 351.558 79.8911 349.353C75.8402 346.304 76.0254 323.956 79.2868 319.285C80.3562 317.754 84.1045 317.701 85.6041 317.604Z"/><path fill="#FA7E01" transform="scale(2 2)" d="M83.7354 324.228C90.4804 324.397 97.9928 324.275 104.784 324.228C104.749 330.68 104.92 337.754 104.7 344.128C97.7174 344.193 90.7344 344.184 83.752 344.1L83.7354 324.228Z"/><path fill="#1585B0" transform="scale(2 2)" d="M370.756 95.1177C376.502 95.065 382.456 95.0027 388.194 95.099C398.603 95.2738 397.723 98.8693 397.782 107.597C397.807 111.341 397.796 115.446 397.791 119.207C397.682 131.092 397.647 142.978 397.688 154.863L397.249 288.936C397.251 297.388 397.337 308.261 397.302 316.403C397.27 323.734 398.369 349.242 396.627 354.999C392.143 356.603 386.897 356.114 382.178 355.939C373.919 355.341 363.508 355.868 354.772 355.529C354.302 346.261 354.519 336.808 354.507 327.507L354.727 269.357L354.74 95.2347C360.079 95.2668 365.418 95.2278 370.756 95.1177Z"/><path fill="#022F4A" transform="scale(2 2)" d="M373.278 273.372C377.192 273.309 387.575 273.234 390.78 275.498C392.523 276.729 393.407 282.929 393.42 285.238C393.449 290.609 394.753 300.81 390.873 305.004C388.094 308.009 381.721 307.925 377.938 308.021C373.167 308.175 363.681 308.018 359.961 304.965C357.32 301.438 358.375 292.146 358.24 288.319C357.722 273.635 360.61 273.794 373.278 273.372Z"/><path fill="#FA7E01" transform="scale(2 2)" d="M371.413 280.116C376.456 280.027 381.448 280.166 386.489 280.28C386.821 288.718 387.16 292.547 386.073 301.039C384.771 300.799 382.847 300.663 381.488 300.531C376.142 300.453 370.605 300.517 365.246 300.519C365.093 293.512 365.018 287.341 365.102 280.309L371.413 280.116Z"/><path fill="#022F4A" transform="scale(2 2)" d="M376.91 99.128C379.913 99.0424 388.765 98.6488 390.981 100.537C392.547 101.872 393.283 107.573 393.326 109.861C393.438 115.803 394.511 126.84 390.648 131.627C388.766 133.96 378.354 133.219 375.007 133.178C364.201 133.428 358.762 133.975 358.444 120.629C358.31 114.992 357.679 105.033 361.101 100.407C362.487 98.5331 374.353 99.1287 376.91 99.128Z"/><path fill="#FA7E01" transform="scale(2 2)" d="M365.236 105.256C372.589 105.276 379.631 105.322 387.016 105.227L387.045 127.038C379.768 126.908 372.49 126.903 365.214 127.025C365.262 119.769 365.269 112.512 365.236 105.256Z"/><path fill="#022F4A" transform="scale(2 2)" d="M367.635 317.85C368.723 317.665 371.505 317.741 372.743 317.681C379.563 317.355 385.524 318.102 392.248 318.943C392.409 326.289 395.521 342.506 391.588 349.077C390.526 350.852 386.817 351.21 384.812 351.456C379.227 351.674 363.004 352.599 359.907 348.231C356.622 343.599 358.862 324.541 359.973 319.466C362.831 318.219 364.494 318.177 367.635 317.85Z"/><path fill="#FEBE4D" transform="scale(2 2)" d="M364.986 323.487C372.363 323.487 378.903 323.337 386.265 324.014C387.083 331.397 386.88 336.915 386.623 344.248C379.501 344.457 372.373 344.446 365.251 344.212C365.339 337.101 364.753 330.764 364.986 323.487Z"/><path fill="#022F4A" transform="scale(2 2)" d="M366.115 186.599C373.939 186.182 381.785 186.462 389.558 187.438C394.409 193.294 393.616 201.392 393.54 208.514C393.468 215.279 392.92 218.332 386.106 220.44C383.723 220.638 380.494 220.549 377.636 220.473C374.307 220.389 362.856 221.334 360.668 217.988C357.629 213.34 359.238 195.153 359.604 190.147C361.329 187.515 363.143 186.95 366.115 186.599Z"/><path fill="#FA7E01" transform="scale(2 2)" d="M365.241 192.732L386.916 192.745C386.863 199.279 387.264 207.831 386.938 214.02C379.803 213.658 372.32 213.824 365.195 214.009C365.352 207.028 365.249 199.737 365.241 192.732Z"/><path fill="#022F4A" transform="scale(2 2)" d="M371.938 230.391C380.834 230.039 384.826 229.639 392.484 234.168C392.484 239.732 392.613 245.763 392.871 251.29C393.475 264.268 390.904 263.901 379.623 264.391C371.599 264.698 367.512 265.248 360.036 262.115C357.734 254.428 357.791 239.955 360.434 232.451C365.173 230.604 366.897 230.597 371.938 230.391Z"/><path fill="#FA7E01" transform="scale(2 2)" d="M365.238 236.494C372.208 236.532 379.248 236.405 386.235 236.397C386.91 241.846 386.821 251.697 386.434 257.241C380.057 257.777 371.745 257.562 365.347 257.092C365.007 251.135 364.957 242.483 365.238 236.494Z"/><path fill="#022F4A" transform="scale(2 2)" d="M375.913 143.116C379.427 143.018 387.59 142.472 390.435 144.492C391.575 145.302 392.572 148.51 392.641 150.172C392.885 155.979 394.812 169.6 391.544 174.305C389.62 177.075 379.37 176.724 376.171 176.779C370.334 177.082 365.849 177.614 360.639 174.787C358.035 167.084 358.408 154.015 359.798 146.075C364.781 142.756 370.117 143.222 375.913 143.116Z"/><path fill="#FA7E01" transform="scale(2 2)" d="M372.312 149.115C377.346 149.048 382.042 149.221 387.023 149.237C387.04 156.577 387.327 163.055 387.017 170.563C384.945 170.491 382.71 170.522 380.625 170.51L365.223 170.506L365.234 149.261C367.468 149.3 370.053 149.172 372.312 149.115Z"/><defs><linearGradient id="gradient_0" gradientUnits="userSpaceOnUse" x1="245.3309" y1="68.231125" x2="225.26541" y2="142.91042"><stop offset="0" stop-color="white" stop-opacity="0"/><stop offset="1" stop-color="white" stop-opacity="0.090196081"/></linearGradient></defs><path fill="url(#gradient_0)" transform="scale(2 2)" d="M131.803 95.1211L277.757 95.2224C300.392 95.2852 325.841 96.1563 348.354 95.2386C347.959 100.853 348.306 110.173 348.244 116.231C345.339 116.298 342.186 116.238 339.262 116.234C286.644 116.539 234.025 116.367 181.41 115.717C167.376 115.602 153.314 116.093 139.28 116.029C133.951 116.005 127.818 116.297 122.602 116.032C122.267 110.256 122.516 101.556 122.538 95.5468C125.67 95.2976 128.665 95.2154 131.803 95.1211ZM228.978 108.394C228.337 106.616 228.464 105.952 228.552 104.069C228.112 103.341 228.401 103.616 227.655 103.213C232.646 103.318 238.259 103.216 243.313 103.248C237.358 101.646 227.236 101.856 220.701 101.35C214.684 101.07 208.8 99.4768 202.851 98.9084C193.633 97.9162 184.201 98.9288 175.016 98.6313C166.389 98.3519 159.798 99.4027 151.385 100.872C146.738 101.684 142.172 102.077 137.409 102.998L152.467 102.986C150.396 103.771 147.008 106.382 147.941 108.786C148.998 109.693 149.581 109.658 150.098 110.59L149.915 110.883C148.823 111.046 148.545 111.024 147.425 110.969C148.332 111.728 156.453 111.712 158.236 111.928C170.639 113.427 182.22 115.081 194.764 114.069C200.45 113.611 206.81 114.222 212.575 113.417C216.445 112.988 224.363 112.499 227.881 111.592C227.056 111.053 224.915 111.026 223.997 111.607L223.893 111.408C224.539 111.079 224.6 111.052 225.243 110.904C226.313 110.658 228.043 109.148 228.978 108.394ZM339.772 98.5C341.302 98.1483 342.844 98.3869 344.149 98.05C344.437 97.214 344.462 97.6003 344.18 96.8506C343.182 96.2966 333.637 96.5041 331.509 96.5024L307.633 96.5157C305.475 96.5166 291.107 96.3401 289.75 96.625C288.915 96.7358 286.067 96.6164 285.716 96.9319C285.825 97.958 285.647 97.7859 286.21 98.4217C287.205 98.7026 289.734 98.499 290.931 98.475C297.883 98.3352 304.146 98.3851 311.014 99.4281C314.699 99.9878 320.146 99.1446 323.957 99.5198C329.666 99.697 334.131 98.3455 339.772 98.5Z"/><path fill="#FEFEFE" fill-opacity="0.43529412" transform="scale(2 2)" d="M152.467 102.986C159.432 100.812 171.653 101.3 179.106 101.347C189.064 101.336 199.021 101.573 208.968 102.056C213.468 102.241 223.479 102.401 227.655 103.213C228.401 103.616 228.112 103.341 228.552 104.069C228.464 105.952 228.337 106.616 228.978 108.394C228.043 109.148 226.313 110.658 225.243 110.904C224.6 111.052 224.539 111.079 223.893 111.408L223.997 111.607C224.915 111.026 227.056 111.053 227.881 111.592C224.363 112.499 216.445 112.988 212.575 113.417C206.81 114.222 200.45 113.611 194.764 114.069C182.22 115.081 170.639 113.427 158.236 111.928C156.453 111.712 148.332 111.728 147.425 110.969C148.545 111.024 148.823 111.046 149.915 110.883L150.098 110.59C149.581 109.658 148.998 109.693 147.941 108.786C147.008 106.382 150.396 103.771 152.467 102.986Z"/><path fill="#FEFEFE" fill-opacity="0.15294118" transform="scale(2 2)" d="M137.409 102.998C142.172 102.077 146.738 101.684 151.385 100.872C159.798 99.4027 166.389 98.3519 175.016 98.6313C184.201 98.9288 193.633 97.9162 202.851 98.9084C208.8 99.4768 214.684 101.07 220.701 101.35C227.236 101.856 237.358 101.646 243.313 103.248C238.259 103.216 232.646 103.318 227.655 103.213C223.479 102.401 213.468 102.241 208.968 102.056C199.021 101.573 189.064 101.336 179.106 101.347C171.653 101.3 159.432 100.812 152.467 102.986L137.409 102.998Z"/></svg>