<?xml version="1.0" encoding="utf-8" ?><svg xmlns="http://www.w3.org/2000/svg" xmlns:xlink="http://www.w3.org/1999/xlink" width="1024" height="1024" viewBox="0 0 1024 1024"><path fill="#F77F00" transform="scale(2 2)" d="M133.658 224.127C134.208 209.025 128.467 206.41 145.292 207.422C163.957 208.544 181.753 212.317 199.463 218.216C200.854 219.104 206.108 221.175 207.719 221.582C211.542 219.838 215.029 218.877 219.272 216.724C241.558 228.055 262.599 232.137 286.395 220.111C288.554 219.02 290.662 217.808 292.88 216.853L293.186 216.724C296.184 217.707 301.49 219.916 304.007 221.582C307.403 219.903 309.215 219.258 312.869 218.216C326.934 211.505 350.872 207.676 365.911 207.455C380.743 207.238 377.073 208.362 377.44 223.378C396.7 225.26 395.545 215.291 395.795 236.753C395.923 247.696 393.969 261.238 394.702 271.812L394.906 272.16C400.531 281.659 416.035 299.41 423.597 306.669C429.801 312.624 426.053 326.45 424.804 333.5C422.037 349.106 405.528 352.325 392.192 347.865C391.328 355.278 392.308 389.447 386.013 390.315C346.447 394.25 307.731 406.966 271.567 423.119C257 429.625 257.988 432.486 242.311 423.896C210.071 408.806 175.446 398.329 140.332 392.567C137.626 392.123 125.327 391.068 123.972 390.355C122.337 386.738 119.113 355.921 119.406 348.694C110.534 350.313 103.379 352.721 95.0028 346.791C85.5514 340.101 81.62 320.063 86.6395 309.374C89.1439 304.041 93.6138 302.63 96.2845 299.188C103.421 289.989 111.452 280.511 118.159 271.03C119.216 267.469 116.089 232.917 115.878 227.217C115.622 220.296 128.585 223.817 133.658 224.127Z"/><path fill="#F77F00" transform="scale(2 2)" d="M123.414 230.975C163.624 233.886 207.179 240.864 239.212 267.307L239.216 399.545C239.226 403.608 239.615 409.968 239.291 413.667L239.212 414.589C236.06 412.869 231.986 411.328 228.609 409.926C206.965 400.937 154.385 383.765 129.913 384.238C130.006 372.625 127.629 359.553 126.525 347.865C124.29 347.67 121.463 347.704 119.406 348.694C110.534 350.313 103.379 352.721 95.0028 346.791C85.5514 340.101 81.62 320.063 86.6395 309.374C89.1439 304.041 93.6138 302.63 96.2845 299.188C103.421 289.989 111.452 280.511 118.159 271.03C118.859 273.974 119.219 279.489 119.406 282.661C119.35 286.852 119.525 291.083 119.406 295.224C121.814 294.334 126.235 293.917 127.08 293.494C127.129 288.394 126.693 282.5 126.415 277.367L124.209 242.412C123.973 238.694 123.557 234.614 123.414 230.975Z"/><path fill="#A50C0B" transform="scale(2 2)" d="M118.159 271.03C118.859 273.974 119.219 279.489 119.406 282.661C119.35 286.852 119.525 291.083 119.406 295.224C121.814 294.334 126.235 293.917 127.08 293.494C141.604 288.958 157.877 291.135 162.29 307.855C163.874 313.977 165.524 319.853 163.339 326.065C155.422 348.569 133.871 341.451 126.525 347.865C124.29 347.67 121.463 347.704 119.406 348.694C110.534 350.313 103.379 352.721 95.0028 346.791C85.5514 340.101 81.62 320.063 86.6395 309.374C89.1439 304.041 93.6138 302.63 96.2845 299.188C103.421 289.989 111.452 280.511 118.159 271.03Z"/><path fill="#F77F00" transform="scale(2 2)" d="M107.059 297.469C111.148 292.698 114.648 287.016 118.991 282.532L119.406 282.661C119.35 286.852 119.525 291.083 119.406 295.224L119.061 295.251C115.917 295.478 110.411 296.815 107.059 297.469Z"/><path fill="#FCBF49" transform="scale(2 2)" d="M138.414 298.602C157.968 296.976 163.049 328.217 146.351 334.386C138.474 337.296 118.959 341.669 109.638 342.871C91.9544 344.965 88.687 317.734 94.2249 311.222C99.6893 304.796 114.249 303.957 122.687 301.828C127.75 300.876 133.342 299.051 138.414 298.602Z"/><path fill="#003049" transform="scale(2 2)" d="M146.026 253.999C159.887 252.423 187.944 258.917 200.682 264.711C203.575 266.038 236.238 279.014 222.521 283.564C220.422 284.172 219.341 283.091 217.63 282.002C196.945 268.831 172.832 261.948 148.36 261.347C141.847 261.187 141.344 255.077 146.026 253.999Z"/><path fill="#003049" transform="scale(2 2)" d="M133.658 224.127C134.208 209.025 128.467 206.41 145.292 207.422C163.957 208.544 181.753 212.317 199.463 218.216C200.854 219.104 206.108 221.175 207.719 221.582C211.542 219.838 215.029 218.877 219.272 216.724C241.558 228.055 262.599 232.137 286.395 220.111C288.554 219.02 290.662 217.808 292.88 216.853L293.186 216.724C296.184 217.707 301.49 219.916 304.007 221.582C307.403 219.903 309.215 219.258 312.869 218.216C326.934 211.505 350.872 207.676 365.911 207.455C380.743 207.238 377.073 208.362 377.44 223.378C396.7 225.26 395.545 215.291 395.795 236.753C395.923 247.696 393.969 261.238 394.702 271.812C393.84 276.09 394.072 279.242 393.994 283.564L393.994 295.224C391.934 294.628 387.436 294.207 386.061 293.494C386.927 281.269 387.036 267.787 387.373 255.492C387.586 247.708 388.528 238.671 388.048 230.975C383.062 230.704 372.229 232.181 366.948 232.803C336.652 236.368 296.645 247.001 272.807 267.307L272.807 414.589C281.43 411.141 289.525 407.21 298.393 404.134C317.321 397.568 361.623 383.513 381.911 384.238C381.767 371.763 384.101 358.727 384.172 346.031C386.291 346.056 390.345 346.904 392.192 347.865C391.328 355.278 392.308 389.447 386.013 390.315C346.447 394.25 307.731 406.966 271.567 423.119C257 429.625 257.988 432.486 242.311 423.896C210.071 408.806 175.446 398.329 140.332 392.567C137.626 392.123 125.327 391.068 123.972 390.355C122.337 386.738 119.113 355.921 119.406 348.694C121.463 347.704 124.29 347.67 126.525 347.865C127.629 359.553 130.006 372.625 129.913 384.238C154.385 383.765 206.965 400.937 228.609 409.926C231.986 411.328 236.06 412.869 239.212 414.589L239.291 413.667C239.615 409.968 239.226 403.608 239.216 399.545L239.212 267.307C207.179 240.864 163.624 233.886 123.414 230.975C123.557 234.614 123.973 238.694 124.209 242.412L126.415 277.367C126.693 282.5 127.129 288.394 127.08 293.494C126.235 293.917 121.814 294.334 119.406 295.224C119.525 291.083 119.35 286.852 119.406 282.661C119.219 279.489 118.859 273.974 118.159 271.03C119.216 267.469 116.089 232.917 115.878 227.217C115.622 220.296 128.585 223.817 133.658 224.127Z"/><path fill="#F77F00" transform="scale(2 2)" d="M219.272 216.724C241.558 228.055 262.599 232.137 286.395 220.111C288.554 219.02 290.662 217.808 292.88 216.853L293.186 216.724C296.184 217.707 301.49 219.916 304.007 221.582C284.603 228.975 267.522 240.182 255.887 257.432C245.014 239.283 226.283 229.99 207.719 221.582C211.542 219.838 215.029 218.877 219.272 216.724Z"/><path fill="#D62828" transform="scale(2 2)" d="M254.244 265.825C257.763 265.457 263.976 266.579 265.361 270.448C266.155 272.667 265.687 311.127 265.687 316.203L265.681 376.378C265.68 388.554 265.979 401.354 265.29 413.539C265.088 417.121 261.257 420.269 258.012 421.583C244.138 424.086 246.25 403.204 246.247 395.523L246.241 304.096C246.242 293.713 246.184 283.324 246.319 272.944C246.375 268.593 250.364 266.35 254.244 265.825Z"/><path fill="#F9D497" transform="scale(2 2)" d="M369.752 215.2L369.993 215.333C369.982 218.508 369.749 221.729 369.752 225.101C332.623 227.497 297.475 240.04 267.306 261.465L265.68 260.762C261.655 258.761 268.923 252.659 271.205 250.546C296.048 227.553 336.72 215.251 369.752 215.2Z"/><path fill="#F9D497" transform="scale(2 2)" d="M141.185 215.2C167.638 212.069 215.038 230.382 235.39 245.695C237.799 247.507 250.093 257.907 247.676 260.762C246.773 261.014 245.511 261.255 244.569 261.465C218.952 240.206 174.106 226.984 141.185 225.101C141.187 221.724 141.056 218.606 141.185 215.2Z"/><path fill="#A50C0B" transform="scale(2 2)" d="M394.702 271.812L394.906 272.16C400.531 281.659 416.035 299.41 423.597 306.669C429.801 312.624 426.053 326.45 424.804 333.5C422.037 349.106 405.528 352.325 392.192 347.865C390.345 346.904 386.291 346.056 384.172 346.031C380.06 346.134 365.226 342.14 361.125 340.948C346.823 336.794 346.909 323.237 348.505 311.802C351.259 292.082 369.182 286.923 386.061 293.494C387.436 294.207 391.934 294.628 393.994 295.224L393.994 283.564C394.072 279.242 393.84 276.09 394.702 271.812Z"/><path fill="#F77F00" transform="scale(2 2)" d="M393.994 283.564C397.708 288.131 401.121 292.921 404.849 297.469C401.035 296.404 397.879 295.924 393.994 295.224L393.994 283.564Z"/><path fill="#FCBF49" transform="scale(2 2)" d="M369.752 298.602C375.804 297.521 389.868 302.29 396.43 303.235C411.486 307.636 422.447 303.907 418.127 326.753C416.106 337.44 414.511 339.344 404.849 342.871C400.801 342.328 391.862 340.351 387.564 339.002C369.546 333.349 351.386 338.647 355.923 313.734C357.442 305.39 360.541 299.74 369.752 298.602Z"/><path fill="#003049" transform="scale(2 2)" d="M364.583 252.104C369.418 252.26 369.133 258.253 366.647 259.047C363.433 260.074 357.793 260.276 354.162 260.829C334.985 263.753 316.397 269.43 299.383 278.84C296.648 280.352 293.475 282.494 290.58 283.564C287.595 283.195 285.234 279.972 287.29 277.678C289.59 275.114 294.822 272.801 297.965 271.137C318.192 260.423 341.697 253.874 364.583 252.104Z"/><path fill="#A50C0B" transform="scale(2 2)" d="M212.333 211.62C208.396 208.039 203.584 203.624 200.169 199.446C159.31 149.466 201.862 75.0102 263.962 82.8275C327.764 90.859 351.047 170.507 300.37 211.62C304.858 213.434 309.066 215.184 312.869 218.216C309.215 219.258 307.403 219.903 304.007 221.582C301.49 219.916 296.184 217.707 293.186 216.724L292.88 216.853C290.662 217.808 288.554 219.02 286.395 220.111C262.599 232.137 241.558 228.055 219.272 216.724C215.029 218.877 211.542 219.838 207.719 221.582C206.108 221.175 200.854 219.104 199.463 218.216C202.675 215.932 208.678 213.296 212.333 211.62Z"/><path fill="#FCBF49" transform="scale(2 2)" d="M251.24 90.485C286.679 87.8086 317.572 114.381 320.225 149.822C322.878 185.263 296.286 216.138 260.843 218.768C225.434 221.396 194.593 194.833 191.942 159.425C189.292 124.017 215.834 93.159 251.24 90.485Z"/></svg>