<svg xmlns="http://www.w3.org/2000/svg" viewBox="0 0 500 500"><defs><style>.cls-1{fill:#f9fbfc;}.cls-2{fill:#ff6b79;}.cls-3{fill:#253a45;}.cls-4{fill:#7c9ba5;}.cls-5{fill:#1a2b32;}.cls-6{fill:#455d68;}.cls-7{fill:#f9f8f7;}</style></defs><g id="BACKGROUND"><rect class="cls-1" width="500" height="500"/></g><g id="OBJECTS"><path class="cls-2" d="M415.8,324c0,2.62-.11,5.23-.32,7.81h0c-16.58-10.39-69-31.43-69-31.43s-18.19-15.49-28.79-29.94c1.33-4.94,3.67-15.89,5.82-26.2.3-1.42.6-2.85.88-4.23.77-.11,1.5-.26,2.21-.41,11.38-2.46,16.13-9.32,17.58-19.37C387.45,242.89,415.8,280.92,415.8,324Z"/><path class="cls-3" d="M389.52,323.24c1.22.93,20.7,15.94,21.62,18.75s-6.94,28.91-11.57,36.48c-.13.22-.28.44-.41.63-14.69,23-38.31,42.06-67.39,54.56,14.3-16.17,21.69-42.82,21.69-42.82l-9-31.88,20.6-4.77L369.33,331C364.69,318.16,354,309.29,354,309.29a88.67,88.67,0,0,0-7.5-8.93s52.4,21,69,31.43h0c-.09,1.35-.24,2.66-.41,4Z"/><path class="cls-4" d="M389.52,323.24l25.55,12.53a102.79,102.79,0,0,1-15.5,42.7c4.63-7.57,12.51-33.67,11.57-36.48S390.74,324.17,389.52,323.24Z"/><path class="cls-5" d="M373.35,146c12.77,3.89,28.43,15,27.8,27.45,0,0-3.11-6.32-11.36-15A63,63,0,0,0,373.35,146Z"/><path class="cls-3" d="M383.74,197.8c-1.39.66-46.51,21.75-132.9,21.75V183c28.79,0,55.42-4.21,72-11.1,15.87-6.59,23.49-12.65,23.62-15s-10.63-4.18-10.63-4.18l-.17,0c-.58-4.6-1.37-9.56-2.23-14.71-.11-.62-.22-1.25-.34-1.89l2.44-.06c70.95,4.68,78.3,35.66,63.59,53.85-8.68,10.74-23.3,21.48-54.76,28.48L342,219c-4.32.92-8.94,1.76-13.9,2.53-19.86,3.07-45.07,4.88-77.3,4.88v-3.29C329.39,223.11,364,211,383.74,197.8Zm17.41-24.33c.63-12.48-15-23.56-27.8-27.45l-.09,0,.09,0a63,63,0,0,1,16.44,12.48C398,167.15,401.15,173.47,401.15,173.47Z"/><path class="cls-5" d="M361.37,350.47h0c3.33-12.08,5.19-20.29,5.19-20.29A135.58,135.58,0,0,0,354,309.29s10.71,8.87,15.35,21.66l-4.27,23.24L344.46,359l9,31.88s-7.39,26.65-21.69,42.82q-3.63,1.57-7.36,3c10-11.28,18.89-31.23,25.89-50.83-.14-.32-11.44-28.45-11.44-28.45l6.63-2Z"/><path class="cls-3" d="M346.46,385.84c-.36.24-5.92,3.78-18.89-3-13.75-7.15-13.75-38.76-13.75-38.76.26,27.46-6.81,76.53-15.91,100.5-.52.14-1.07.25-1.61.36,4.7-20.1,12.11-79.05,14.09-123.69.68-14.92.73-28.22-.13-38,3.91-5.44,6.68-10.1,7.43-12.91,10.6,14.45,28.79,29.94,28.79,29.94a88.67,88.67,0,0,1,7.5,8.93,135.58,135.58,0,0,1,12.6,20.89s-1.86,8.21-5.19,20.29h0l-15.88,4.86-25.68-37.11c.71,1.25,12.18,21.43,19.05,39.13,0,0,11.3,28.13,11.44,28.45-7,19.6-15.89,39.55-25.89,50.83l0,0c-1.51.58-3.07,1.14-4.62,1.69A209.7,209.7,0,0,0,346.46,385.84Z"/><path class="cls-5" d="M250.84,219.55c86.39,0,131.51-21.09,132.9-21.75C364,211,329.39,223.11,250.84,223.11Z"/><path class="cls-5" d="M335.85,152.79s10.76,1.84,10.63,4.18-7.75,8.38-23.62,15c-16.6,6.89-43.23,11.1-72,11.1v-3.5c65.82,0,85.57-20.12,85.57-20.12-.19-2.12-.43-4.33-.73-6.61Z"/><path class="cls-5" d="M319.81,318.22l25.68,37.11-6.63,2C332,339.65,320.52,319.47,319.81,318.22Z"/><path class="cls-4" d="M344.18,220.21c-1.45,10-6.2,16.91-17.58,19.37,0,0,8.7-6.74,10.73-9.31C342,224.29,342,219,342,219l2.34-.51C344.32,219.06,344.25,219.64,344.18,220.21Z"/><path class="cls-3" d="M327.57,382.88c13,6.74,18.53,3.2,18.89,3a209.7,209.7,0,0,1-26.69,52.5,196.51,196.51,0,0,1-21.86,6.28c9.1-24,16.17-73,15.91-100.5C313.82,344.12,313.82,375.73,327.57,382.88Z"/><path class="cls-5" d="M342,219s0,5.3-4.71,11.28c-2,2.57-10.73,9.31-10.73,9.31-.71.15-1.44.3-2.21.41,1.37-6.55,2.55-12.41,3.18-15.7.36-1.76.57-2.77.57-2.77C333.1,220.75,337.72,219.91,342,219Z"/><path class="cls-6" d="M260.39,145.81c41.21-1.4,65.14-11.58,71.79-14.84.2,1.14.41,2.26.62,3.39-7.36,4.47-18.12,7.69-31.11,10.22,0,0,13.68,2.95,31.76-6.48.86,5.15,1.65,10.11,2.23,14.71.3,2.28.54,4.49.73,6.61,0,0-19.75,20.12-85.57,20.12V146Q255.76,146,260.39,145.81Z"/><path class="cls-3" d="M333.11,136.21c.12.64.23,1.27.34,1.89-18.08,9.43-31.76,6.48-31.76,6.48,13-2.53,23.75-5.75,31.11-10.22C332.91,135,333,135.59,333.11,136.21Z"/><path class="cls-5" d="M331.35,126.5c.29,1.49.57,3,.83,4.47-6.65,3.26-30.58,13.44-71.79,14.84C304.18,141.34,320.43,132.45,331.35,126.5Z"/><path class="cls-3" d="M304.11,61.63c.54.49,9.15,8.2,11.21,16.24,2.11,8.33,7.93,37,7.93,37l-3.48-39.1S316.85,68.4,304.11,61.63Zm18.24,11c1.35,14.94,5.49,35,9,53.83-10.92,5.95-27.17,14.84-71,19.31q-4.63.16-9.55.17V72.09c29.63,0,31.74-17.42,31.74-17.42C276.37,59.1,269.82,63,250.84,63V60.67a49.61,49.61,0,0,0,16.64-1.94,49.94,49.94,0,0,0,16.66-8.52c5.52-.2,12.4,0,25.8,9.68A51.56,51.56,0,0,1,322.35,72.67Z"/><path class="cls-5" d="M328.14,221.52s-.21,1-.57,2.77c0,0-4.58,11.34-8,22.16-4.26,1.94-8.61,2.09-20.71,2.32-15.69.28-20.14,3.38-26.34,3.57s-13-7.17-21.67-7.17V226.4C283.07,226.4,308.28,224.59,328.14,221.52Z"/><path class="cls-4" d="M327.57,224.29c-.63,3.29-1.81,9.15-3.18,15.7-.28,1.38-.58,2.81-.88,4.23a29.17,29.17,0,0,1-3.95,2.23C323,235.63,327.57,224.29,327.57,224.29Z"/><path class="cls-6" d="M319.77,75.76l3.48,39.1s-5.82-28.66-7.93-37c-2.06-8-10.67-15.75-11.21-16.24C316.85,68.4,319.77,75.76,319.77,75.76Z"/><path class="cls-1" d="M319.56,246.45a29.17,29.17,0,0,0,3.95-2.23c-2.15,10.31-4.49,21.26-5.82,26.2-.75,2.81-3.52,7.47-7.43,12.91-2.66,3.71-5.84,7.77-9.26,11.87a213.36,213.36,0,0,1-20.25,21.24,157.19,157.19,0,0,0,19.65-24.61c9.13-14.3,13.76-21.86,16.08-33.87A104.26,104.26,0,0,1,319.56,246.45Z"/><path class="cls-4" d="M264,326.29a61.52,61.52,0,0,1-13.16,1.44V300.61c7,0,15.33-5.07,15.85-5.39a146.07,146.07,0,0,1-15.85.62v-7.62a219.66,219.66,0,0,0,27.49-1.93c-7.22-.13-18.71-3.11-20.53-3s-7,3.6-7,3.6V271.84c5.88,0,8.53-2.34,9.73-4.51,7.38-1.57,8.18-6.47,8.18-6.47-1.27,1.74-2.9,3-7.2,2.84a14.07,14.07,0,0,1-10.71,5.43v-24c8.7,0,15.48,7.36,21.67,7.17s10.65-3.29,26.34-3.57c12.1-.23,16.45-.38,20.71-2.32A104.26,104.26,0,0,0,316.48,258c-2.32,12-7,19.57-16.08,33.87a157.19,157.19,0,0,1-19.65,24.61l-.1.08c-4.15,3.68-7.91,6.49-10.83,7.84A30.34,30.34,0,0,1,264,326.29Zm5.46-65.3c6,1.49,13.07,11.45,14.06,19.31.11,1.46.11,2.38.11,2.38a12.89,12.89,0,0,0-.11-2.38,48.91,48.91,0,0,0-2.08-12C279.68,263.35,271.86,261.46,269.46,261Z"/><path class="cls-1" d="M310.26,283.33c.86,9.74.81,23,.13,38-.73,4.85-1.64,9.47-2.62,13.7a187.59,187.59,0,0,1-7.11,24c-7.28-10.12-17.68-19-25.56-25-2.94-2.21-5.53-4-7.45-5.32,14.45-4.55,22.61-15.85,33.35-33.48C304.42,291.1,307.6,287,310.26,283.33Z"/><path class="cls-4" d="M307.77,335c1-4.23,1.89-8.85,2.62-13.7-2,44.64-9.39,103.59-14.09,123.69-3,.66-6.06,1.25-9.13,1.78C296.77,420.05,307.46,337.57,307.77,335Z"/><path class="cls-1" d="M300.66,359a187.59,187.59,0,0,0,7.11-24c-.31,2.58-11,85.06-20.6,111.77-3.18.54-6.38,1-9.64,1.42,0,0-4.23-42.37-5.58-58.37s-9-36.54-9-36.54l7-13.15,2-2.36S289.56,348.58,300.66,359Z"/><path class="cls-3" d="M280.75,316.44A213.36,213.36,0,0,0,301,295.2c-10.74,17.63-18.9,28.93-33.35,33.48-2.14-1.44-3.47-2.28-3.65-2.39a30.34,30.34,0,0,0,5.82-1.93c2.92-1.35,6.68-4.16,10.83-7.84Z"/><path class="cls-3" d="M281.44,268.34a48.91,48.91,0,0,1,2.08,12c-1-7.86-8.07-17.82-14.06-19.31C271.86,261.46,279.68,263.35,281.44,268.34Z"/><path class="cls-5" d="M300.66,359c-11.1-10.38-28.71-21.2-28.71-21.2L275.1,334C283,340,293.38,348.84,300.66,359Z"/><path class="cls-5" d="M282.58,54.67s-2.11,17.42-31.74,17.42V63C269.82,63,276.37,59.1,282.58,54.67Z"/><path class="cls-5" d="M277.53,448.18c-1.65.21-3.3.39-5,.56,0,0-2.12-45.38-4.7-63.44a152.07,152.07,0,0,0-8.51-32.53L270,340.12l-7,13.15s7.62,20.53,9,36.54S277.53,448.18,277.53,448.18Z"/><path class="cls-3" d="M275.1,334,272,337.76l-2,2.36-10.61,12.65h-8.52V331a56,56,0,0,0,16.81-2.27C269.57,330,272.16,331.79,275.1,334Z"/><path class="cls-3" d="M272.57,448.74c-1.22.13-2.43.25-3.65.32l0-.32C270,430,266,388.65,266,388.65s-.41,50.7-7.54,61.05c-2.51.09-5,.13-7.58.13V352.77h8.52a152.07,152.07,0,0,1,8.51,32.53C270.45,403.36,272.57,448.74,272.57,448.74Z"/><path class="cls-3" d="M278.33,286.29a219.66,219.66,0,0,1-27.49,1.93v-1.29s5.17-3.45,7-3.6S271.11,286.16,278.33,286.29Z"/><path class="cls-4" d="M266,388.65s4,41.3,2.94,60.09l0,.32c-3.46.3-7,.52-10.5.64C265.55,439.35,266,388.65,266,388.65Z"/><path class="cls-5" d="M268.75,260.86s-.8,4.9-8.18,6.47a7.89,7.89,0,0,0,1-3.63C265.85,263.87,267.48,262.6,268.75,260.86Z"/><path class="cls-5" d="M264,326.29c.18.11,1.51.95,3.65,2.39A56,56,0,0,1,250.84,331v-3.22A61.52,61.52,0,0,0,264,326.29Z"/><path class="cls-4" d="M250.84,295.84a146.07,146.07,0,0,0,15.85-.62c-.52.32-8.85,5.39-15.85,5.39Z"/><path class="cls-5" d="M260.57,267.33c-1.2,2.17-3.85,4.51-9.73,4.51v-2.71a14.07,14.07,0,0,0,10.71-5.43A7.89,7.89,0,0,1,260.57,267.33Z"/><path class="cls-2" d="M85.87,324c0,2.62.12,5.23.32,7.81h0c16.58-10.39,69-31.43,69-31.43s18.19-15.49,28.78-29.94c-1.33-4.94-3.67-15.89-5.82-26.2-.3-1.42-.6-2.85-.88-4.23-.77-.11-1.5-.26-2.21-.41-11.38-2.46-16.13-9.32-17.57-19.37C114.23,242.89,85.87,280.92,85.87,324Z"/><path class="cls-3" d="M112.15,323.24c-1.22.93-20.7,15.94-21.62,18.75s7,28.91,11.57,36.48c.13.22.28.44.41.63,14.69,23,38.31,42.06,67.4,54.56-14.3-16.17-21.69-42.82-21.69-42.82l9-31.88-20.61-4.77L132.35,331c4.64-12.79,15.34-21.66,15.34-21.66a88.77,88.77,0,0,1,7.51-8.93s-52.41,21-69,31.43h0c.1,1.35.25,2.66.41,4Z"/><path class="cls-4" d="M112.15,323.24,86.6,335.77a102.93,102.93,0,0,0,15.5,42.7C97.48,370.9,89.6,344.8,90.53,342S110.93,324.17,112.15,323.24Z"/><path class="cls-5" d="M128.32,146c-12.76,3.89-28.43,15-27.79,27.45,0,0,3.11-6.32,11.36-15A63.16,63.16,0,0,1,128.32,146Z"/><path class="cls-3" d="M168.22,138.1c.12-.62.23-1.25.34-1.89l-2.43-.06c-70.95,4.68-78.31,35.66-63.6,53.85,8.69,10.74,23.3,21.48,54.76,28.48l2.34.51c4.33.92,9,1.76,13.91,2.53,19.86,3.07,45.07,4.88,77.29,4.88v-3.29c-78.55,0-113.15-12.13-132.9-25.31,1.39.66,46.51,21.75,132.9,21.75V183c-28.78,0-55.41-4.21-72-11.1-15.87-6.59-23.49-12.65-23.62-15s10.63-4.18,10.63-4.18l.17,0C166.58,148.21,167.36,143.25,168.22,138.1Zm-67.69,35.37c-.64-12.48,15-23.56,27.79-27.45l.1,0-.1,0a63.16,63.16,0,0,0-16.43,12.48C103.64,167.15,100.53,173.47,100.53,173.47Z"/><path class="cls-5" d="M140.3,350.47h0c-3.33-12.08-5.18-20.29-5.18-20.29a135,135,0,0,1,12.59-20.89S137,318.16,132.35,331l4.26,23.24L157.22,359l-9,31.88s7.39,26.65,21.69,42.82q3.61,1.57,7.35,3c-10-11.28-18.88-31.23-25.88-50.83l11.43-28.45-6.62-2Z"/><path class="cls-3" d="M181.87,318.22c-.71,1.25-12.19,21.43-19.06,39.13L151.38,385.8c7,19.6,15.89,39.55,25.88,50.83l0,0c1.52.58,3.07,1.14,4.62,1.69a209.73,209.73,0,0,1-26.68-52.5c.35.24,5.91,3.78,18.88-3,13.76-7.15,13.76-38.76,13.76-38.76-.27,27.46,6.81,76.53,15.9,100.5.53.14,1.07.25,1.61.36-4.69-20.1-12.11-79.05-14.09-123.69-.67-14.92-.73-28.22.13-38-3.91-5.44-6.68-10.1-7.43-12.91-10.59,14.45-28.78,29.94-28.78,29.94a88.77,88.77,0,0,0-7.51,8.93,135,135,0,0,0-12.59,20.89s1.85,8.21,5.18,20.29h0l15.89,4.86Z"/><path class="cls-5" d="M250.83,219.55c-86.39,0-131.51-21.09-132.9-21.75,19.75,13.18,54.35,25.31,132.9,25.31Z"/><path class="cls-5" d="M165.83,152.79s-10.76,1.84-10.63,4.18,7.75,8.38,23.62,15c16.6,6.89,43.23,11.1,72,11.1v-3.5c-65.82,0-85.56-20.12-85.56-20.12.18-2.12.43-4.33.73-6.61Z"/><path class="cls-5" d="M181.87,318.22l-25.68,37.11,6.62,2C169.68,339.65,181.16,319.47,181.87,318.22Z"/><path class="cls-4" d="M157.5,220.21c1.44,10,6.19,16.91,17.57,19.37,0,0-8.7-6.74-10.72-9.31-4.72-6-4.72-11.28-4.72-11.28l-2.34-.51C157.35,219.06,157.42,219.64,157.5,220.21Z"/><path class="cls-3" d="M174.1,382.88c-13,6.74-18.53,3.2-18.88,3a209.73,209.73,0,0,0,26.68,52.5,196.51,196.51,0,0,0,21.86,6.28c-9.09-24-16.17-73-15.9-100.5C187.86,344.12,187.86,375.73,174.1,382.88Z"/><path class="cls-5" d="M159.63,219s0,5.3,4.72,11.28c2,2.57,10.72,9.31,10.72,9.31.71.15,1.44.3,2.21.41-1.36-6.55-2.54-12.41-3.18-15.7-.36-1.76-.56-2.77-.56-2.77C168.58,220.75,164,219.91,159.63,219Z"/><path class="cls-6" d="M241.29,145.81c-41.21-1.4-65.15-11.58-71.79-14.84-.21,1.14-.42,2.26-.62,3.39,7.35,4.47,18.12,7.69,31.1,10.22,0,0-13.68,2.95-31.76-6.48-.86,5.15-1.64,10.11-2.22,14.71-.3,2.28-.55,4.49-.73,6.61,0,0,19.74,20.12,85.56,20.12V146Q245.93,146,241.29,145.81Z"/><path class="cls-3" d="M168.56,136.21c-.11.64-.22,1.27-.34,1.89,18.08,9.43,31.76,6.48,31.76,6.48-13-2.53-23.75-5.75-31.1-10.22C168.77,135,168.67,135.59,168.56,136.21Z"/><path class="cls-5" d="M170.32,126.5c-.28,1.49-.56,3-.82,4.47,6.64,3.26,30.58,13.44,71.79,14.84C197.49,141.34,181.25,132.45,170.32,126.5Z"/><path class="cls-3" d="M197.57,61.63c-.54.49-9.15,8.2-11.21,16.24-2.12,8.33-7.94,37-7.94,37l3.48-39.1S184.82,68.4,197.57,61.63Zm-18.25,11c-1.35,14.94-5.48,35-9,53.83,10.93,5.95,27.17,14.84,71,19.31q4.64.16,9.54.17V72.09c-29.62,0-31.74-17.42-31.74-17.42C225.31,59.1,231.86,63,250.83,63V60.67a49.53,49.53,0,0,1-16.63-1.94,49.84,49.84,0,0,1-16.66-8.52c-5.52-.2-12.41,0-25.81,9.68A51.74,51.74,0,0,0,179.32,72.67Z"/><path class="cls-5" d="M173.54,221.52s.2,1,.56,2.77c0,0,4.59,11.34,8,22.16,4.27,1.94,8.61,2.09,20.72,2.32,15.68.28,20.14,3.38,26.33,3.57s13-7.17,21.67-7.17V226.4C218.61,226.4,193.4,224.59,173.54,221.52Z"/><path class="cls-4" d="M174.1,224.29c.64,3.29,1.82,9.15,3.18,15.7.28,1.38.58,2.81.88,4.23a29.79,29.79,0,0,0,4,2.23C178.69,235.63,174.1,224.29,174.1,224.29Z"/><path class="cls-6" d="M181.9,75.76l-3.48,39.1s5.82-28.66,7.94-37c2.06-8,10.67-15.75,11.21-16.24C184.82,68.4,181.9,75.76,181.9,75.76Z"/><path class="cls-1" d="M182.11,246.45a29.79,29.79,0,0,1-4-2.23c2.15,10.31,4.49,21.26,5.82,26.2.75,2.81,3.52,7.47,7.43,12.91,2.66,3.71,5.84,7.77,9.27,11.87a211.1,211.1,0,0,0,20.25,21.24,155.93,155.93,0,0,1-19.65-24.61C192.14,277.53,187.52,270,185.2,258A106.76,106.76,0,0,0,182.11,246.45Z"/><path class="cls-4" d="M232.21,261c-6,1.49-13.06,11.45-14.05,19.31-.12,1.46-.12,2.38-.12,2.38a12.92,12.92,0,0,1,.12-2.38,48.85,48.85,0,0,1,2.07-12C222,263.35,229.82,261.46,232.21,261Zm5.47,65.3a61.51,61.51,0,0,0,13.15,1.44V300.61c-7,0-15.32-5.07-15.85-5.39a146.07,146.07,0,0,0,15.85.62v-7.62a219.66,219.66,0,0,1-27.49-1.93c7.22-.13,18.72-3.11,20.53-3s7,3.6,7,3.6V271.84c-5.87,0-8.53-2.34-9.73-4.51-7.37-1.57-8.18-6.47-8.18-6.47,1.28,1.74,2.9,3,7.21,2.84a14,14,0,0,0,10.7,5.43v-24c-8.7,0-15.47,7.36-21.67,7.17s-10.65-3.29-26.33-3.57c-12.11-.23-16.45-.38-20.72-2.32A106.76,106.76,0,0,1,185.2,258c2.32,12,6.94,19.57,16.08,33.87a155.93,155.93,0,0,0,19.65,24.61l.09.08c4.15,3.68,7.92,6.49,10.84,7.84A30.11,30.11,0,0,0,237.68,326.29Z"/><path class="cls-1" d="M191.41,283.33c-.86,9.74-.8,23-.13,38,.73,4.85,1.65,9.47,2.62,13.7A189.58,189.58,0,0,0,201,359c7.28-10.12,17.69-19,25.57-25,2.94-2.21,5.52-4,7.45-5.32-14.45-4.55-22.61-15.85-33.35-33.48C197.25,291.1,194.07,287,191.41,283.33Z"/><path class="cls-4" d="M193.9,335c-1-4.23-1.89-8.85-2.62-13.7,2,44.64,9.4,103.59,14.09,123.69q4.53,1,9.14,1.78C204.91,420.05,194.22,337.57,193.9,335Z"/><path class="cls-1" d="M201,359a189.58,189.58,0,0,1-7.11-24c.32,2.58,11,85.06,20.61,111.77,3.18.54,6.38,1,9.64,1.42,0,0,4.23-42.37,5.57-58.37s9-36.54,9-36.54l-7-13.15-2-2.36S212.11,348.58,201,359Z"/><path class="cls-3" d="M220.93,316.44a211.1,211.1,0,0,1-20.25-21.24c10.74,17.63,18.9,28.93,33.35,33.48,2.13-1.44,3.46-2.28,3.65-2.39a30.11,30.11,0,0,1-5.82-1.93c-2.92-1.35-6.69-4.16-10.84-7.84Z"/><path class="cls-3" d="M220.23,268.34a48.85,48.85,0,0,0-2.07,12c1-7.86,8.06-17.82,14.05-19.31C229.82,261.46,222,263.35,220.23,268.34Z"/><path class="cls-5" d="M201,359c11.1-10.38,28.71-21.2,28.71-21.2L226.58,334C218.7,340,208.29,348.84,201,359Z"/><path class="cls-5" d="M219.09,54.67s2.12,17.42,31.74,17.42V63C231.86,63,225.31,59.1,219.09,54.67Z"/><path class="cls-5" d="M224.15,448.18c1.64.21,3.29.39,5,.56,0,0,2.11-45.38,4.69-63.44a152.41,152.41,0,0,1,8.52-32.53l-10.61-12.65,7,13.15s-7.62,20.53-9,36.54S224.15,448.18,224.15,448.18Z"/><path class="cls-3" d="M226.58,334l3.14,3.76,2,2.36,10.61,12.65h8.51V331a55.88,55.88,0,0,1-16.8-2.27C232.1,330,229.52,331.79,226.58,334Z"/><path class="cls-3" d="M229.11,448.74c1.21.13,2.43.25,3.64.32l0-.32c-1-18.79,2.94-60.09,2.94-60.09s.41,50.7,7.54,61.05q3.76.14,7.58.13V352.77h-8.51a152.41,152.41,0,0,0-8.52,32.53C231.22,403.36,229.11,448.74,229.11,448.74Z"/><path class="cls-3" d="M223.34,286.29a219.66,219.66,0,0,0,27.49,1.93v-1.29s-5.16-3.45-7-3.6S230.56,286.16,223.34,286.29Z"/><path class="cls-5" d="M235.71,388.65s-4,41.3-2.94,60.09l0,.32c3.47.3,7,.52,10.5.64C236.12,439.35,235.71,388.65,235.71,388.65Z"/><path class="cls-5" d="M232.92,260.86s.81,4.9,8.18,6.47a7.8,7.8,0,0,1-1-3.63C235.82,263.87,234.2,262.6,232.92,260.86Z"/><path class="cls-5" d="M237.68,326.29c-.19.11-1.52.95-3.65,2.39a55.88,55.88,0,0,0,16.8,2.27v-3.22A61.51,61.51,0,0,1,237.68,326.29Z"/><path class="cls-4" d="M250.83,295.84a146.07,146.07,0,0,1-15.85-.62c.53.32,8.85,5.39,15.85,5.39Z"/><path class="cls-5" d="M241.1,267.33c1.2,2.17,3.86,4.51,9.73,4.51v-2.71a14,14,0,0,1-10.7-5.43A7.8,7.8,0,0,0,241.1,267.33Z"/><path class="cls-1" d="M225.18,287.3c3.46,1.62,2.49,4.48,9.52,4.47A113.88,113.88,0,0,0,249,290.68l17-1.92,10.48-2.07-.41-.16a212.09,212.09,0,0,1-25.31,1.69,243.3,243.3,0,0,1-27.23-1.88Z"/><path class="cls-5" d="M262.63,289.15c-2.94,0-6.84,0-10.76-.1a158.28,158.28,0,0,1-27.29-2.59h-.79l1.39.85c3.46,1.62,2.49,4.48,9.52,4.47A113.88,113.88,0,0,0,249,290.68Z"/><path class="cls-1" d="M257.21,256.28c1.71-.22,2.61,6.89.22,6.89S254.82,256.58,257.21,256.28Z"/><path class="cls-1" d="M264.59,290.53c1.62-1.78,5.94-.68,4.16.49S263.27,292,264.59,290.53Z"/><path class="cls-5" d="M255.54,276.67c2.19-2.28,6.49-1.55,11,.58s13.45,5.42,13.07,6.39c-.19.48-2.42.14-2.77.11-2.05-.14-4.09-.4-6.13-.68-2.38-.32-4.75-.64-7.11-1.06a28.16,28.16,0,0,1-5.84-1.35C256.58,280.15,254.15,278.13,255.54,276.67Z"/><path class="cls-5" d="M246.13,276.67c-2.19-2.28-6.48-1.55-11,.58s-13.46,5.42-13.07,6.39c.19.48,2.42.14,2.76.11,2.05-.14,4.1-.4,6.14-.68,2.37-.32,4.75-.64,7.11-1.06a28.22,28.22,0,0,0,5.83-1.35C245.09,280.15,247.53,278.13,246.13,276.67Z"/><path class="cls-5" d="M237.68,290.68c6.8.58,32.46-2.37,40.65-4.39a56.88,56.88,0,0,1-17.76,3.61c-10.64.57-24.26,3.84-24.26,3.84Z"/><path class="cls-5" d="M223.34,286.29s2.6,2.38,6,4.93l1.38-1-6.22-3.74Z"/><path class="cls-3" d="M243.64,299.44c6.29-.58,20.33-2.23,20.67-1.07s-8.37,4.84-13.21,4.84A9.61,9.61,0,0,1,243.64,299.44Z"/><path class="cls-5" d="M274.29,286a7.43,7.43,0,0,1,4.47.22c.58.47,3.46,3.91,1.71,4.14C279.74,290.48,274.29,286,274.29,286Z"/><path class="cls-5" d="M227.39,286a7.46,7.46,0,0,0-4.48.22c-.58.47-3.45,3.91-1.7,4.14C221.93,290.48,227.39,286,227.39,286Z"/><path class="cls-3" d="M237.78,291.9c-.81,2.24-23.11,21.61-28.67,27v0l-2.27,2.2a9.37,9.37,0,0,1-7.09-3.94c-2.86-3.94-1.1-5.92-1.1-5.92l1.53-1.1h0l31.73-23.74C235.13,285.38,238.76,289.13,237.78,291.9Z"/><path class="cls-1" d="M209.11,318.93v0l-2.27,2.2a9.37,9.37,0,0,1-7.09-3.94c-2.67-3.68-1.31-5.64-1.12-5.9l0,0,1.53-1.1h0C203.28,309.52,208.87,315.64,209.11,318.93Z"/><path class="cls-2" d="M206.84,321.15a9.37,9.37,0,0,1-7.09-3.94c-2.67-3.68-1.31-5.64-1.12-5.9l0,0c1-.72,4.25.95,5.95,3.36S207.61,320,206.84,321.15Z"/><path class="cls-5" d="M237.68,290.68,209.11,314.6a4.34,4.34,0,0,1,.62,2.52l28-24.81.86-1.58Z"/><polygon class="cls-6" points="203.61 309.29 231.64 288.22 206.31 310.59 203.61 309.29"/><path class="cls-4" d="M346.87,382.3l-17.75-41.57s8.13,27.54,11.23,32.23S346.87,382.3,346.87,382.3Z"/><path class="cls-4" d="M140.16,327.73s13.27-21.88,15.06-24-2.87,6.7-5.58,12.73S140.16,327.73,140.16,327.73Z"/><path class="cls-7" d="M182.21,299.86c-4.81-3.92-8.74-9.25-9.7-15.38-1.11-7,1.67-13.91,3.18-20.82s1.3-15.22-4.17-19.71c-6.54-5.35-17.67-2.8-23.16-9.22-3.83-4.49-3-11.32-.82-16.81s5.38-10.77,5.7-16.67c.4-7.31-3.94-14.27-9.76-18.71s-13-6.75-20.06-8.59c-5.43-1.41-11.12-2.68-15.55-6.13a16.91,16.91,0,0,1-3.08-3.19,26.22,26.22,0,0,0,5.94,8.64,34.89,34.89,0,0,0,9.26,6.51c3.84,1.87,8,3,11.87,4.79s7.61,4.38,9.53,8.19c2.34,4.63,1.59,10.28-.41,15.06.3-3.78-1.86-7.41-4.77-9.84-6.39-5.35-16.54-8.13-24.57-9.64-3.6-.67-7.34-1.09-10.58-2.8s-5.92-5.16-5.42-8.79c-1.74,7-.28,14.53,2.89,21a54.82,54.82,0,0,0,7.91,11.64c3,3.42,5.57,5.06,9.4,7.21,6.77,3.8,15.14,6.44,18.93,13.82,1.72,3.37,2.2,7.35,4.48,10.36s6.12,4.53,9.84,6a20.24,20.24,0,0,1,6.94,3.56,28.59,28.59,0,0,0-6.94-3.56c-4.67-1.43-9.93-1.63-14.87-1.58-8.29.09-17.29.34-24-4.55-6.14-4.47-8.62-11.89-11.48-19.14a19.19,19.19,0,0,0-10.39-8.66c-5.86-1.89-13,0-16.48,5.06-2.37,3.42-2.91,7.77-2.85,11.93a26.71,26.71,0,0,0,2.83,12.46c3,5.38,8.45,9,14.27,10.93,11.31,3.78,25.5,4.2,37.32,3.83,3.12-.1,6.25-.33,9.37-.41,6.45-.17,14.06-.24,19.77,3.2,8.18,4.92,4.84,16.37,5,24.25.1,5.41.94,11,4.14,15.47,6.07,8.5,17.52,13.13,27.68,13.75,3.59.23,7.65-.64,8.71-4.35C192.56,306.4,187,303.74,182.21,299.86Z"/><path class="cls-7" d="M140.43,263.07c.4.05.8.12,1.21.19a11.15,11.15,0,0,1,5.92,2.68c2.3,2.26,2.68,5.54,2.88,8.6.24,3.5.17,7.23,2,10.24-.49-.82-1.62-1.46-2.2-2.33a17,17,0,0,1-1.58-3.31,47.94,47.94,0,0,0-2.66-6.86c-3-5.34-9.83-5.69-15.28-4.65-4.65.88-9.22,2.42-13.8,3.55a88.1,88.1,0,0,1-15.06,2.21c-2.4.16-5,.2-7-1.1a6.09,6.09,0,0,1-2.76-5c0-4.38,2.61-4.81,6-4.19,5.83,1.07,11.66.93,17.56.74q6.41-.21,12.82-.64C132.39,262.91,136.45,262.42,140.43,263.07Z"/></g></svg>