<svg xmlns="http://www.w3.org/2000/svg" viewBox="0 0 500 500.02"><defs><style>.cls-1{isolation:isolate;}.cls-18,.cls-2{fill:#a9a4e4;}.cls-12,.cls-24,.cls-3,.cls-37{fill:#fff;}.cls-3,.cls-5{opacity:0.28;}.cls-4{fill:#ff755d;}.cls-17,.cls-35,.cls-5{fill:#4143a5;}.cls-18,.cls-19,.cls-21,.cls-23,.cls-33,.cls-34,.cls-5,.cls-7,.cls-8,.cls-9{mix-blend-mode:multiply;}.cls-6,.cls-7,.cls-8{fill:#fab7cf;}.cls-7{opacity:0.89;}.cls-8{opacity:0.42;}.cls-10{fill:#cd6348;}.cls-11,.cls-34{fill:#ff92bf;}.cls-12{opacity:0.62;}.cls-13,.cls-15,.cls-22,.cls-25,.cls-26,.cls-27,.cls-29,.cls-31,.cls-32{fill:none;stroke-miterlimit:10;}.cls-13{stroke:#343580;stroke-width:3.24px;}.cls-13,.cls-15,.cls-26,.cls-27,.cls-29,.cls-31,.cls-32{stroke-linecap:round;}.cls-14,.cls-33{fill:#343580;}.cls-15,.cls-31{stroke:#1d1a49;}.cls-15{stroke-width:2.16px;}.cls-16{fill:#4e5ec1;}.cls-18,.cls-33{opacity:0.57;}.cls-19{opacity:0.78;}.cls-20{fill:#ffcf61;}.cls-21{opacity:0.71;}.cls-22{stroke:#c34422;stroke-width:1.08px;}.cls-23{fill:#ff8353;opacity:0.38;}.cls-25,.cls-26,.cls-27{stroke:#f9f9f9;}.cls-25,.cls-26{stroke-width:3.92px;}.cls-27{stroke-width:1.96px;}.cls-28{fill:#86d7f4;}.cls-29{stroke:#86d7f4;stroke-width:2.25px;}.cls-30{fill:#1d1a49;}.cls-31{stroke-width:2.15px;}.cls-32{stroke:#fff;stroke-width:1.07px;}.cls-34{opacity:0.21;}.cls-35{opacity:0.45;}.cls-36{fill:#9290e0;}.cls-37{font-size:24px;font-family:Poppins-Bold, Poppins Bold;font-weight:700;letter-spacing:0.21em;}.cls-38{letter-spacing:0.2em;}.cls-39{letter-spacing:0.2em;}.cls-40{letter-spacing:0.2em;}</style></defs><g class="cls-1"><g id="BACKGROUND"><rect class="cls-2" width="500" height="500"/><circle class="cls-3" cx="249.66" cy="263.01" r="177.96"/></g><g id="OBJECTS"><path class="cls-4" d="M211.75,248.48c-2,5.6-5.7,10.68-7.79,16.31s-3,12.1-.6,17.66c.26-.73.51-1.47.77-2.2a15.35,15.35,0,0,0,12,3.2l-1.85-1.78c7.83,3.45,16.88,0,25.43.49,3.52.21,7,1.12,10.48,1.5a35.45,35.45,0,0,0,20-3.75c-.11.88-.23,1.76-.34,2.65a43.64,43.64,0,0,0,8.93-3.65c-.9.66,0,2.28,1.11,2.28a3.35,3.35,0,0,0,2.59-1.89c2.15-3.45,2.45-7.78,1.81-11.8s-2.12-7.84-3.34-11.72c-3.93-12.49-.89-28.54-8.66-39.59a20.69,20.69,0,0,0-21.3-8,8.89,8.89,0,0,1,3-2.3,7.19,7.19,0,0,0-6.75,2.83,9.23,9.23,0,0,0-5.29-2.44,10.06,10.06,0,0,1,3.69,2.69c-11.7-3.66-25.26,3.91-29.27,15.32-2.42,6.9-2.1,14.57-3.87,21.67A25,25,0,0,1,211.75,248.48Z"/><path class="cls-5" d="M211.75,248.48c-.71,2-2,3.49.23,5.2a9.14,9.14,0,0,0,3.45,1.38,18.45,18.45,0,0,0,5.63,23.39c-3.71-.09-7.29-1.31-10.8-2.52l2.18,4.27a19,19,0,0,1-6.76-.07c1.21.23,2.61,2.25,3.84,2.79a12.15,12.15,0,0,0,6.63.53l-1.85-1.78c7.83,3.45,16.88,0,25.43.49,3.52.21,7,1.12,10.48,1.5a35.45,35.45,0,0,0,20-3.75c-.11.88-.23,1.76-.34,2.65a43.64,43.64,0,0,0,8.93-3.65c-.9.66,0,2.28,1.11,2.28a3.35,3.35,0,0,0,2.59-1.89c1.57-2.52,3-7.05,1.75-10a13.43,13.43,0,0,1-3.45,8,16.55,16.55,0,0,0,2.05-7.53,17.84,17.84,0,0,1-9.69,9,14.26,14.26,0,0,0,2.28-4.56,24,24,0,0,1-8.23,4.53,26.5,26.5,0,0,0,7.59-9.12A16.39,16.39,0,0,0,276,258.08c6.79.05,3.49-8.41,3-12.16-.7-5.69-.86-11.43-1.79-17.09-.73-4.41-1.6-5.54-5.38-8.19-1.86-1.31-3.78-2.55-5.74-3.72-1.37-.82-4.56-1.8-5.49-3l2.87,3.76a17.26,17.26,0,0,1-13.07-7.18,5.8,5.8,0,0,0-1.65,4.68c-.43-1-.86-2-1.28-3l-1.92,2,.27-2.63c-4.54,3.95-10.29,7.08-16.28,6.57a31,31,0,0,0-4.49-.4,4.48,4.48,0,0,0-3.79,2.07c.42-1.11.83-2.22,1.24-3.32-3.2,1.29-5,4.79-6.08,7.86-2.42,6.9-2.1,14.57-3.87,21.67A25,25,0,0,1,211.75,248.48Z"/><path class="cls-6" d="M253.14,275.41A38.09,38.09,0,0,0,255,288.82a7.81,7.81,0,0,0,4.15,4.67,8.63,8.63,0,0,1,2.05.86c-4.2,2.61-10,3.67-14.85,3.84a29.54,29.54,0,0,1-15.33-3.34c8-1.39,7.72-13.83,7.39-20a35.2,35.2,0,0,0,14.7.32Z"/><path class="cls-7" d="M253.14,275.41A38.09,38.09,0,0,0,255,288.82a7.81,7.81,0,0,0,4.15,4.67,8.63,8.63,0,0,1,2.05.86c-4.2,2.61-10,3.67-14.85,3.84a29.54,29.54,0,0,1-15.33-3.34c.76.42,3-1.2,3.49-1.66a9.84,9.84,0,0,0,2.36-3.44,12.9,12.9,0,0,1,.7-2.07c.5-.68,1.18-.36,2.1-.4a24.85,24.85,0,0,0,6-1.23c-.53.15-2.41-1.44-2.85-1.77a35.42,35.42,0,0,0-4.38-2.86c-.06-.69.38-6.42-.06-6.53a35.2,35.2,0,0,0,14.7.32Z"/><path class="cls-6" d="M260.73,220.88c-.68-.1-1.36-.21-2-.35-3.25-.68-6.66-2.32-7.84-5.43,0,1.12,0,2.23,0,3.34a1.4,1.4,0,0,1-.38,1.13c-.52.4-1.24-.11-1.63-.64a6.77,6.77,0,0,1-1.28-3.7l-2.73,4c.07-1.18.13-2.36.19-3.54-2.19,3.29-6.13,4.92-9.94,6s-7.81,1.72-11.16,3.82c-4.6,2.88-5.37,7.69-5.37,12.69,0,6.35.44,12.73.67,19.07.12,3.54.29,7.23,2.07,10.29,1.52,2.62,4.06,4.47,6.65,6,8.18,4.93,18.23,9.47,27.32,4.88a102,102,0,0,0,9.14-5.22,18.36,18.36,0,0,0,5.06-4.29c1.73-2.34,2.37-5.31,2.82-8.19a136.71,136.71,0,0,0,1.36-17.63c.16-6.7,2.74-17.31-5.16-20.6A31.7,31.7,0,0,0,260.73,220.88Z"/><path class="cls-8" d="M260.46,231.63c-1.24,0-2.48-.06-3.73-.08a309.7,309.7,0,0,0-32.52,1.24c-3.75.35-5.71,1.55-5.71,5.37,0,6.35.44,12.73.67,19.07.12,3.54.29,7.23,2.07,10.29,1.52,2.62,4.06,4.47,6.65,6,8.18,4.93,18.23,9.47,27.32,4.88a35.65,35.65,0,0,0,5.67-3.54,22.38,22.38,0,0,1-21,.35c-7.43-3.89-12.81-12.75-12.42-21.18q14.4.34,28.79,0c4.72-.09,9.43-.26,14.15-.43,3-.11,2.6-.78,2.76-3.48.14-2.37.37-4.72.42-7.09.08-3.16,2.29-9.5-.74-10.87-2-.9-5.8-.37-8-.46C263.4,231.71,261.93,231.66,260.46,231.63Z"/><g class="cls-9"><path class="cls-10" d="M243.17,251.66a1.4,1.4,0,0,0,.42,1.39,8.7,8.7,0,0,0,1,.79c.4.28.81.56,1.23.8a3.1,3.1,0,0,0,1.62.52,2,2,0,0,1-1.94,1.15,3.73,3.73,0,0,1-2.15-.7,3.25,3.25,0,0,1-1.38-2,2,2,0,0,1,.18-1.31A1.21,1.21,0,0,1,243.17,251.66Z"/></g><g class="cls-9"><path class="cls-11" d="M235.74,256.37a23.6,23.6,0,0,0,5.15,2.93,15.69,15.69,0,0,0,5.48,1.13A13.6,13.6,0,0,0,256.52,256a9.09,9.09,0,0,1-3.94,4.87,11.47,11.47,0,0,1-6.24,1.77,12.42,12.42,0,0,1-6.2-1.79A11.91,11.91,0,0,1,235.74,256.37Z"/></g><rect class="cls-2" x="210.52" y="221.28" width="71.25" height="30.38" rx="11.68"/><polygon class="cls-12" points="224.88 221.28 215.26 249.36 218.95 251.2 224.88 251.66 235.74 221.28 224.88 221.28"/><polygon class="cls-12" points="242.15 221.28 232 251.66 235.74 251.66 246.1 221.28 242.15 221.28"/><polygon class="cls-12" points="244.58 251.66 255.1 221.28 264.12 221.28 253.84 251.66 244.58 251.66"/><polygon class="cls-12" points="270.09 221.28 259.04 251.66 262.47 251.66 273.56 221.8 272.12 221.28 270.09 221.28"/><path class="cls-12" d="M269.45,251.66l9.63-26.16,2.31,4.54.26,11.56-3.35,6.68C276.88,250.29,273.6,251.23,269.45,251.66Z"/><line class="cls-13" x1="216.91" y1="222.55" x2="276.31" y2="222.55"/><line class="cls-13" x1="216.84" y1="250.36" x2="276.24" y2="250.36"/><path class="cls-14" d="M222.2,251.66h-4.68a9.2,9.2,0,0,1-9.2-9.2v-12a9.2,9.2,0,0,1,9.2-9.2h4.68l-2.61,1.92a11.37,11.37,0,0,0-4.62,9.16v7.57a11.37,11.37,0,0,0,3.57,8.28Z"/><path class="cls-14" d="M270.42,251.66H275a9.09,9.09,0,0,0,9-9.2v-12a9.09,9.09,0,0,0-9-9.2h-4.56L273,223.2a11.47,11.47,0,0,1,4.51,9.16v7.57a11.52,11.52,0,0,1-3.48,8.28Z"/><path class="cls-15" d="M203.35,237.49a126,126,0,0,1-17.92.85c-6.32-.05-13.76-1-17.82-6.33-3.92-5.19-3.92-12.67-1.06-18.51,2.2-4.47,6.25-8.31,11.18-9S188.2,207,189,211.9a6.33,6.33,0,0,1-.9,4.56,4.45,4.45,0,0,1-4.08,2,5.31,5.31,0,0,1-2.56-1.17c-3.48-2.75-4.25-8-2.55-12.15,2.88-7,10.48-10.13,17.49-11.09,6.34-.86,11.59,1.35,17.39,3.36,7.68,2.65,17.64,5.3,25.79,3.49,3.55-.78,6.49-3,7.21-6.63a22.74,22.74,0,0,0,.27-4.88l-.12-8.88"/><path class="cls-14" d="M205.72,232.71h2.61a0,0,0,0,1,0,0v10.1a0,0,0,0,1,0,0h-2.61a1.68,1.68,0,0,1-1.68-1.68v-6.74A1.68,1.68,0,0,1,205.72,232.71Z"/><path class="cls-16" d="M204,240.85h-2.33a3.09,3.09,0,0,1-3.09-3.1h0a3.09,3.09,0,0,1,3.09-3.09H204Z"/><path class="cls-17" d="M304.44,500l-43.06,0c-2.31-7-3.27-13.44-4.95-20.63-.53-2.21-4.35-23.33-5.51-23.44l-8.46-.75-3,23.57c-.21,1.7-2.37,21.23-2.4,21.23h-40.3c-.22-17.13-1.57-34.34,0-51.46,1.71-18.32,5.8-36.59,14.22-53.06-2-.13-2.07-3.12-1.37-5,1.26-3.48,2.5-6.72,3.53-10.27,4.35,2.39,9.45,3,14.41,3.28,8.65.54,17.32.41,26,.28,9-.13,18.22-.29,26.89-2.89-.23.07,2.32,6.1,2.45,6.42,1.12,2.66,2,6.3-.38,7.94,0,0,8,18,8.6,19.85A202.57,202.57,0,0,1,298,443.39C301.29,462.5,302.45,480.73,304.44,500Z"/><path class="cls-18" d="M304.44,500l-43.06,0c-2.31-7-3.27-13.44-4.95-20.63-.53-2.21-4.35-23.33-5.51-23.44l-8.46-.75-3,23.57c-.21,1.7-2.37,21.23-2.4,21.23h-40.3c-.07-5.42-1.46-12.76.4-18a38.28,38.28,0,0,0,7.5,7.27,2.65,2.65,0,0,0,1.75.7,2.7,2.7,0,0,0,1.57-1.06l23.48-25.78a85.55,85.55,0,0,1-15.25-15.64,22.71,22.71,0,0,1,11.83.16c-3-.86-5.64-4.34-8-6.22a19.19,19.19,0,0,0-9.59-4,17,17,0,0,1,8.7-1,6,6,0,0,0-5-3.65,12.41,12.41,0,0,0-4.8,1,14.09,14.09,0,0,1-4.82,1,5.23,5.23,0,0,1-4.29-2.05l-2.7,10.45c1.14-4.42.69-9.2,2.11-13.61,1.23-3.84,1.6-7.84,2.71-11.75a123.2,123.2,0,0,1,8.7-22.41c-2-.13-2.07-3.12-1.37-5,1.26-3.48,2.5-6.72,3.53-10.27,4.35,2.39,9.45,3,14.41,3.28,8.65.54,17.32.41,26,.28,9-.13,18.22-.29,26.89-2.89-.23.07,2.32,6.1,2.45,6.42,1.12,2.66,2,6.3-.38,7.94,0,0,8,18,8.6,19.85,1,3.14,2,6.3,2.79,9.49.77,2.91,1,6.77,2.53,9.31-.42.41-.74.17-1.14-.24-2.06-2.14-5.34-2.75-8.25-2.21a21.9,21.9,0,0,0-8,3.73A75.36,75.36,0,0,0,268.21,444a23.25,23.25,0,0,1,16.39-.16,61.81,61.81,0,0,0-20.71,16.41,32.48,32.48,0,0,1,17.22-4.38c-4.76,3.82-9.93,8.44-10.12,14.55-.19,5.94,4.58,10.94,9.79,13.8a34.2,34.2,0,0,0,18.32,4.11A5.76,5.76,0,0,0,303,487C304.24,491.38,304,495.42,304.44,500Z"/><g class="cls-19"><path class="cls-2" d="M258.4,451.36a28.82,28.82,0,0,1,2.74-6,38.23,38.23,0,0,1,8.52-10,28.6,28.6,0,0,1,5.47-3.64c-1.42,1.69-2.88,3.26-4.31,4.86s-2.84,3.18-4.21,4.8-2.73,3.26-4.09,4.91S259.84,449.69,258.4,451.36Z"/></g><g class="cls-19"><path class="cls-2" d="M263.49,451.12a11.71,11.71,0,0,1,2.4-2,17.88,17.88,0,0,1,2.71-1.41,17.06,17.06,0,0,1,2.92-.91,11.12,11.12,0,0,1,3.13-.25,13.57,13.57,0,0,1-2.53,1.84,22.88,22.88,0,0,1-5.54,2.28A13.39,13.39,0,0,1,263.49,451.12Z"/></g><g class="cls-19"><path class="cls-2" d="M220.5,437.76a32.55,32.55,0,0,1,5.29,2.71,50.59,50.59,0,0,1,4.86,3.36,51.31,51.31,0,0,1,4.45,3.9,33.57,33.57,0,0,1,3.91,4.48,51.69,51.69,0,0,1-5-3.19c-1.61-1.12-3.16-2.29-4.7-3.49s-3-2.42-4.52-3.71A52.9,52.9,0,0,1,220.5,437.76Z"/></g><g class="cls-19"><path class="cls-2" d="M223.61,449.84a10.56,10.56,0,0,1,3,.13,16.11,16.11,0,0,1,5.5,2,10.15,10.15,0,0,1,2.38,1.9,12.66,12.66,0,0,1-3-.32,20.37,20.37,0,0,1-2.79-.83,20.74,20.74,0,0,1-2.64-1.19A12.54,12.54,0,0,1,223.61,449.84Z"/></g><g class="cls-19"><path class="cls-2" d="M252.72,450.22a21.46,21.46,0,0,1-3.47,1.7,9.55,9.55,0,0,1-3.93.67,5.91,5.91,0,0,1-3.78-1.76,11.33,11.33,0,0,1-2.15-3.47c-2.1-4.85-2.81-10-3.55-15.09a145.49,145.49,0,0,1-1.23-15.33,115.72,115.72,0,0,1,.53-15.35c.36,5.11.7,10.19,1.15,15.25S237.29,427,238,432c.32,2.51.68,5,1.12,7.5a45.32,45.32,0,0,0,1.85,7.25,10.39,10.39,0,0,0,1.63,3.14,4.7,4.7,0,0,0,2.88,1.66,9.11,9.11,0,0,0,3.62-.19A26.81,26.81,0,0,0,252.72,450.22Z"/></g><path class="cls-20" d="M340.33,383.89c-2.89,8.35-11.62,12.16-18.28,5.31a69.72,69.72,0,0,1-8.16-11c-10-15.48-20.36-30.8-30.13-46.39q-2.47,17-3.77,34.2a7.1,7.1,0,0,0,.08,2.39,9.83,9.83,0,0,0,1.24,2.41,13.75,13.75,0,0,1,1.87,6.17c.2,3.38-1.09,7.05-4,8.79a14,14,0,0,1-4.26,1.45,33.67,33.67,0,0,0-9.21,3.16,13.22,13.22,0,0,1-10,.68c-1.49-.49-3-1.26-4.54-.87a10.54,10.54,0,0,0-2.25,1.13c-4.92,2.63-11.08-1.11-16.12-1.7-2.83-.34-5.69,0-8.54-.13s-5.84-1-7.69-3.15l.36,1.21a23.27,23.27,0,0,1-6.71-3.93c-2.24-2.13-4.26-6.91-2.34-9.74a18.38,18.38,0,0,0,1.8-2.64,9,9,0,0,0,.46-3.94c-.27-7.33-.59-14.64-1.2-21.95-.15-1.83-.31-3.66-.45-5.5-.09-1.13-.85-4.08-.35-5.07q-7.11,14.2-15,28c-5.05,8.84-9.58,18-14.79,26.73a17.94,17.94,0,0,1-4.15,5.23c-6.89,5.3-13.69-1.5-15.49-8.08A27.59,27.59,0,0,1,161,367.13c4-7.42,10.41-13.38,14.68-20.64,8-13.65,14.62-28.15,22.75-41.7a5.88,5.88,0,0,1,5.15-3.62,154.7,154.7,0,0,0,22.6-6.16,2.59,2.59,0,0,1-.72-1.31,7.59,7.59,0,0,0,6.06-2.29c1-1.1,2.07-4.1,3.75-4.24a2.89,2.89,0,0,1,1.15.24c6.65,2.3,12.27,1.22,19,.07a4.17,4.17,0,0,1,1.79,0c1.42.39,2,2.05,2.82,3.26a6,6,0,0,0,5.58,2.43l-1.09,1.19c8.13,1.53,16.24,2.91,24.36,4.5a5.88,5.88,0,0,1,2.15.72,5.94,5.94,0,0,1,1.34,1.4c7.28,9.57,14.79,19.5,21.17,29.64,3.72,5.92,7.45,11.85,11.73,17.4s10,9.88,13.11,16.2C341.29,370.15,342.56,377.46,340.33,383.89Z"/><path class="cls-18" d="M340.33,383.89c-2.89,8.35-11.62,12.16-18.28,5.31a69.72,69.72,0,0,1-8.16-11c-10-15.48-20.36-30.8-30.13-46.39q-2.47,17-3.77,34.2a7.1,7.1,0,0,0,.08,2.39,9.83,9.83,0,0,0,1.24,2.41,13.75,13.75,0,0,1,1.87,6.17c.2,3.38-1.09,7.05-4,8.79a14,14,0,0,1-4.26,1.45,33.67,33.67,0,0,0-9.21,3.16,13.22,13.22,0,0,1-10,.68c-1.49-.49-3-1.26-4.54-.87a10.54,10.54,0,0,0-2.25,1.13c-4.92,2.63-11.08-1.11-16.12-1.7-2.83-.34-5.69,0-8.54-.13s-5.84-1-7.69-3.15l.36,1.21a23.27,23.27,0,0,1-6.71-3.93c-2.24-2.13-4.26-6.91-2.34-9.74a18.38,18.38,0,0,0,1.8-2.64,9,9,0,0,0,.46-3.94c-.27-7.33-.59-14.64-1.2-21.95-.15-1.83-.31-3.66-.45-5.5-.09-1.13-.85-4.08-.35-5.07q-7.11,14.2-15,28c-5.05,8.84-9.58,18-14.79,26.73a17.94,17.94,0,0,1-4.15,5.23c-6.89,5.3-13.69-1.5-15.49-8.08A27.59,27.59,0,0,1,161,367.13c4.73-8.82,12.84-15.79,23.44-14.66L179.57,350a13,13,0,0,1,9.31.4,13.89,13.89,0,0,1-2.17-8.71,15.43,15.43,0,0,1,7.12,3.29,83.57,83.57,0,0,1-1-17.38,12.43,12.43,0,0,1,7,5.58,58.07,58.07,0,0,0,.48-29.87,41,41,0,0,1,5.66,9.42,27.89,27.89,0,0,1-.58-8.4,20,20,0,0,1,8,14.51c.35-2.83.71-5.65,1.06-8.48a44.18,44.18,0,0,1,5.5,28.08c3.91-3.25,9.42-3.41,14.37-4.53a34.8,34.8,0,0,0,19.87-12.8c-11.31-5.12-23.25-10.76-30-21.2a46.47,46.47,0,0,0,20.79,3.3,36.08,36.08,0,0,1-17.74-8.75,26.52,26.52,0,0,0,21.3-1.52L241.12,289c4.75-.42,9.59-.35,14.25-1.52a4.17,4.17,0,0,1,1.79,0c1.42.39,2,2.05,2.82,3.26a6,6,0,0,0,5.58,2.43l-1.09,1.19c8.13,1.53,16.24,2.91,24.36,4.5,4.29.84,3.91,4.27,2.76,7.75a57.21,57.21,0,0,0-2.81,20.9A8.7,8.7,0,0,1,293,320.6a31.47,31.47,0,0,0,2.24,16.93,18,18,0,0,1,11.67-6.15,101.4,101.4,0,0,1-7.75,11.12,25.27,25.27,0,0,1,12.34-5.19A18.78,18.78,0,0,1,307,345l5.63-1.75a41.07,41.07,0,0,0-6.44,8.45,70.41,70.41,0,0,1,15.49-.45c8.46.69,13,5.62,16.63,13C341.29,370.15,342.56,377.46,340.33,383.89Z"/><g class="cls-21"><path class="cls-2" d="M225.77,294.9c.75.33,1.5.67,2.23,1l2.28.88,2.32.77,2.35.62a42.85,42.85,0,0,0,19.25,0l2.36-.61,2.32-.76,2.28-.88c.74-.35,1.48-.69,2.24-1-.7.43-1.4.86-2.11,1.28l-2.22,1.11-2.3.92-2.36.76a36.11,36.11,0,0,1-19.67,0l-2.36-.77-2.3-.93-2.2-1.12C227.17,295.76,226.46,295.33,225.77,294.9Z"/></g><g class="cls-21"><path class="cls-2" d="M245.21,305.16a52.32,52.32,0,0,0,19.9-8.86,27.82,27.82,0,0,1-19.9,8.86Z"/></g><g class="cls-21"><path class="cls-2" d="M225.07,299.82q1.16.94,2.28,1.92l2.4,1.75,2.5,1.6,2.6,1.41a46.38,46.38,0,0,0,22.84,4.82l2.95-.23,2.93-.46,2.9-.63c.95-.28,1.9-.56,2.87-.83-.92.38-1.85.75-2.78,1.11l-2.88.87-2.94.61-3,.39a40.73,40.73,0,0,1-23.29-4.92l-2.57-1.57-2.45-1.75-2.27-2C226.46,301.25,225.76,300.53,225.07,299.82Z"/></g><g class="cls-21"><path class="cls-2" d="M289.67,300.14A75.41,75.41,0,0,0,285.24,314a76.57,76.57,0,0,0-1.59,14.45,42.53,42.53,0,0,1,6-28.3Z"/></g><g class="cls-21"><path class="cls-2" d="M286.8,301.75a79.41,79.41,0,0,0-6.51,22.64,36.36,36.36,0,0,1,6.51-22.64Z"/></g><g class="cls-21"><path class="cls-2" d="M200.85,303.23a28,28,0,0,1,3.9,7.29,42.15,42.15,0,0,1,2,8.05,78.45,78.45,0,0,1,.47,16.49c-.5-5.48-.71-10.95-1.54-16.33A47,47,0,0,0,200.85,303.23Z"/></g><g class="cls-21"><path class="cls-2" d="M206.12,305.58a32.17,32.17,0,0,1,3.25,27.18,48.3,48.3,0,0,0-3.25-27.18Z"/></g><g class="cls-21"><path class="cls-2" d="M215,314a9.52,9.52,0,0,1,1.78,3.86,9.43,9.43,0,0,1,.05,4.26,31.78,31.78,0,0,1-1.1-4A32.72,32.72,0,0,1,215,314Z"/></g><g class="cls-21"><path class="cls-2" d="M335.63,359.42a18.72,18.72,0,0,0-12.21-5.54,10.86,10.86,0,0,1,12.21,5.54Z"/></g><g class="cls-21"><path class="cls-2" d="M164.7,360.71a17,17,0,0,1,17-6.43,28,28,0,0,0-9.06,1.75A27.7,27.7,0,0,0,164.7,360.71Z"/></g><g class="cls-21"><path class="cls-2" d="M188.83,342.16a3.74,3.74,0,0,1,3,3,5.25,5.25,0,0,1-1.8-1.25A5.58,5.58,0,0,1,188.83,342.16Z"/></g><g class="cls-21"><path class="cls-2" d="M300,347.74a8.2,8.2,0,0,1,2.92-5,9.44,9.44,0,0,1,2.55-1.5,13,13,0,0,0,2.54-1.25,5.78,5.78,0,0,1-2.15,2,18.49,18.49,0,0,0-2.25,1.59,16.74,16.74,0,0,0-1.94,1.92A26.79,26.79,0,0,0,300,347.74Z"/></g><g class="cls-21"><path class="cls-2" d="M303.07,333.77a2.19,2.19,0,0,1-.51,1.8,2.14,2.14,0,0,1-1.68.84,4.71,4.71,0,0,1,.85-1.53A4.36,4.36,0,0,1,303.07,333.77Z"/></g><g class="cls-21"><path class="cls-2" d="M195.93,330.74a22.72,22.72,0,0,1,4.23,16,82.17,82.17,0,0,0-1.65-8.12A78.54,78.54,0,0,0,195.93,330.74Z"/></g><g class="cls-21"><path class="cls-2" d="M290.9,337.85a2.18,2.18,0,0,1-.34-1.83,2.15,2.15,0,0,1,1.13-1.47,4.59,4.59,0,0,1-.79,3.3Z"/></g><path class="cls-14" d="M160.66,382.87a26.92,26.92,0,0,1,2-13.38,20,20,0,0,1,4.86-7.67,10,10,0,0,1,8.41-2.72,6,6,0,0,1,3,1.45,7.18,7.18,0,0,1,1.66,2.75,21.34,21.34,0,0,1,1.07,8.41,39.48,39.48,0,0,1-4.29,16.21,14.25,14.25,0,0,1-3.82,5C166.71,398.1,161.46,388.64,160.66,382.87Z"/><path class="cls-6" d="M166.66,393.24c3,2.66,8.19,3.34,12,2.1,1.39-.46,3.39-1.72,3.24-3.45a2.11,2.11,0,0,0-1.41-1.78,8.21,8.21,0,0,0,2.93-1.49,2.77,2.77,0,0,0,.86-3,3.45,3.45,0,0,0-2.62-1.7c2-.2,4.15-1.09,4.72-3a3.18,3.18,0,0,0-2.94-4,4.85,4.85,0,0,0,3.79-1.41,3.21,3.21,0,0,0,.41-3.84c-1-1.5-3.81-1.73-5.46-2-1.07-.19-2.15-.33-3.23-.52a17.74,17.74,0,0,0-2.95-.7c3.29-2.57,8.87-3.8,8.51-9.09a10.81,10.81,0,0,0-.41-2.46c-.07-.22-1.38-2.12-1.45-1.95-1.78,4-6.11,6.13-10.29,7.36a6.48,6.48,0,0,0-1.77.7c-1.41.94-1.77,2.82-2,4.5a4.57,4.57,0,0,0-2.81,3.16,5.06,5.06,0,0,0,.94,4.34,5.32,5.32,0,0,0-1.13,8.23,4,4,0,0,0,.27,6,2,2,0,0,0-.5,2.12A4.19,4.19,0,0,0,166.66,393.24Z"/><path class="cls-7" d="M165.84,370.16c0,1.22-.6,3.95.75,4.69,1.85,1,4.67,1,6.72,1.31l7.74,1.26c1.06.18,2.33.51,2.66,1.54a2.18,2.18,0,0,1-1.17,2.35,7.2,7.2,0,0,1-4.07.57,54,54,0,0,1-11.2-1.37,3.13,3.13,0,0,1-2.26-1.46c-.42-1,.15-2.05.7-2.95-1,.16-1.46,2-1.57,2.8-.14,1,0,3.16,1,3.86s3.3.5,4.43.63q5.13.56,10.26.87a4,4,0,0,1,1.57.31,1.35,1.35,0,0,1,.81,1.27c-.08.68-.8,1.07-1.44,1.32a19.08,19.08,0,0,1-13,.1c-1.32-.47-2.79-1.31-3-2.83a4.79,4.79,0,0,0-.38,2.56c.47,2.66,4.22,2.53,6.37,2.88a68.89,68.89,0,0,0,9.51.87c.25.68.47,1.54,0,2.06a1.73,1.73,0,0,1-.65.4c-5.23,2.19-9.66.6-14.35-1.79,1.64,4.61,9.52,5.2,13.37,3.93,1.39-.46,3.39-1.72,3.24-3.45a2.11,2.11,0,0,0-1.41-1.78,8.21,8.21,0,0,0,2.93-1.49,2.77,2.77,0,0,0,.86-3,3.45,3.45,0,0,0-2.62-1.7c2-.2,4.15-1.09,4.72-3a3.18,3.18,0,0,0-2.94-4,4.85,4.85,0,0,0,3.79-1.41,3.21,3.21,0,0,0,.41-3.84c-1-1.5-3.81-1.73-5.46-2-1.07-.19-2.15-.33-3.23-.52a17.74,17.74,0,0,0-2.95-.7c3.29-2.57,8.87-3.8,8.51-9.09-.05-.82,0-2.62-1-3a6.48,6.48,0,0,1-1.93,5.21,15.37,15.37,0,0,1-4.78,3.14,51.89,51.89,0,0,1-5.42,2.17c4,2.47,9.23,1.71,13.44,3.75.94.45,2,1.43,1.5,2.38a2.09,2.09,0,0,1-.7.72,13.14,13.14,0,0,1-6.8,2,24.57,24.57,0,0,1-7.82-.84,9.32,9.32,0,0,1-3.43-1.57A4.21,4.21,0,0,1,165.84,370.16Z"/><g class="cls-21"><path class="cls-11" d="M169.5,375.51c3,.45,5.91.82,8.88,1,1.48.12,3,.17,4.45.26l1.12.05a3.67,3.67,0,0,0,1.05,0,2.64,2.64,0,0,0,1.83-1,2.65,2.65,0,0,1-1.69,1.54,4,4,0,0,1-1.18.24l-1.12.08a36,36,0,0,1-4.53,0A25.46,25.46,0,0,1,169.5,375.51Z"/></g><g class="cls-21"><path class="cls-11" d="M183,383.53a7.06,7.06,0,0,1-3.72.91,23.24,23.24,0,0,1-3.83.09c-1.32-.11-2.52-.35-3.78-.56a13.19,13.19,0,0,1-3.67-1.11c1.27.16,2.51.2,3.77.28.63,0,1.26.08,1.9.13s1.23.16,1.85.19c1.24.1,2.47.09,3.75.14A11.11,11.11,0,0,0,183,383.53Z"/></g><g class="cls-21"><path class="cls-11" d="M183.65,388.29a6.64,6.64,0,0,1-3.61,2.08,15.12,15.12,0,0,1-4.18.34,18.26,18.26,0,0,1-8-2.13,51.82,51.82,0,0,0,8,1.05,23,23,0,0,0,4-.08A9,9,0,0,0,183.65,388.29Z"/></g><g class="cls-21"><path class="cls-11" d="M180.25,369.26a14.39,14.39,0,0,1-4.77-.27,14.17,14.17,0,0,1-4.47-1.71,32.33,32.33,0,0,1,9.24,2Z"/></g><path class="cls-14" d="M336.92,380.54a27.23,27.23,0,0,0-2-13.38,20.12,20.12,0,0,0-4.82-7.67,10,10,0,0,0-8.35-2.73,5.91,5.91,0,0,0-3,1.46,7.12,7.12,0,0,0-1.65,2.74,21.59,21.59,0,0,0-1,8.42,39.59,39.59,0,0,0,4.25,16.21,14.27,14.27,0,0,0,3.78,5C330.92,395.77,336.13,386.31,336.92,380.54Z"/><path class="cls-6" d="M331,390.91c-3,2.66-8.13,3.34-11.86,2.1-1.38-.46-3.37-1.72-3.22-3.45a2.15,2.15,0,0,1,1.4-1.79,8.06,8.06,0,0,1-2.9-1.48,2.79,2.79,0,0,1-.86-3,3.43,3.43,0,0,1,2.61-1.7c-2-.2-4.12-1.1-4.69-3a3.17,3.17,0,0,1,2.91-4,4.77,4.77,0,0,1-3.75-1.41,3.22,3.22,0,0,1-.41-3.84c1-1.51,3.78-1.73,5.42-2,1.06-.19,2.13-.33,3.2-.52a17.23,17.23,0,0,1,2.93-.69c-3.27-2.57-8.8-3.8-8.45-9.09a11.4,11.4,0,0,1,.41-2.46c.07-.22,1.37-2.12,1.44-1.95,1.76,4,6.06,6.12,10.2,7.35a6.44,6.44,0,0,1,1.76.71c1.4.93,1.76,2.82,2,4.49a4.59,4.59,0,0,1,2.78,3.17,5.09,5.09,0,0,1-.93,4.34,5.35,5.35,0,0,1,1.12,8.23,4,4,0,0,1-.27,6,2,2,0,0,1,.5,2.11A4.21,4.21,0,0,1,331,390.91Z"/><path class="cls-7" d="M331,391c-3,2.76-8.4,3.2-11.93,2-1.38-.46-3.37-1.72-3.22-3.45a2.15,2.15,0,0,1,1.4-1.79,8.06,8.06,0,0,1-2.9-1.48,2.79,2.79,0,0,1-.86-3,3.43,3.43,0,0,1,2.61-1.7c-2-.2-4.12-1.1-4.69-3a3.17,3.17,0,0,1,2.91-4,4.77,4.77,0,0,1-3.75-1.41,3.22,3.22,0,0,1-.41-3.84c1-1.51,3.78-1.73,5.42-2,1.06-.19,2.13-.33,3.2-.52a17.23,17.23,0,0,1,2.93-.69c-3.27-2.57-8.8-3.8-8.45-9.09a5.51,5.51,0,0,1,1.24-3.74,8,8,0,0,0,4.06,7.87c2.65,1.6,5.82,2,8.89,2.42a28.53,28.53,0,0,1-11.59,4,7.18,7.18,0,0,0-2.26.48,2.07,2.07,0,0,0-1.27,1.78c0,1.4,1.79,2,3.19,2.06a31.51,31.51,0,0,0,10.88-1.14,7.16,7.16,0,0,0,3.13-1.55,2.92,2.92,0,0,0,.81-3.21c.43.91,1.22,1.26,1.5,2.37,1.19,4.67-4.64,5.33-7.95,5.61l-8.8.77a3.34,3.34,0,0,0-1.92.57,2.27,2.27,0,0,0,.23,3.23,5.86,5.86,0,0,0,3.37,1.22,38.47,38.47,0,0,0,11-.25,7.58,7.58,0,0,0,3.84-1.51,2.94,2.94,0,0,0,.67-3.75,4.74,4.74,0,0,1,1.12,2.29c1,7.18-11.9,5.21-16.28,5.29a4.64,4.64,0,0,0-1.62.23,1.6,1.6,0,0,0-1,1.18,1.58,1.58,0,0,0,.76,1.43,4.2,4.2,0,0,0,1.6.53,37.3,37.3,0,0,0,12.69-.12,6.49,6.49,0,0,0,2.29-.7,2.46,2.46,0,0,0,1.27-1.94c.55,1.46-.32,3.88-1.87,4.17A77.73,77.73,0,0,1,318.83,388c-.71,0-1.59.13-1.87.79a1.37,1.37,0,0,0,.34,1.41,4.38,4.38,0,0,0,2.64,1.16c4.59.74,8.12-.7,12.35-1.94A6.81,6.81,0,0,1,331,391Z"/><g class="cls-21"><path class="cls-11" d="M328.15,373.18a25.25,25.25,0,0,1-8.73,2.08,35.56,35.56,0,0,1-4.5,0l-1.12-.08a4.61,4.61,0,0,1-1.16-.24,2.59,2.59,0,0,1-1.67-1.54,2.58,2.58,0,0,0,1.81,1,3.55,3.55,0,0,0,1,0l1.11-.06c1.48-.08,3-.13,4.42-.25C322.29,374,325.18,373.63,328.15,373.18Z"/></g><g class="cls-21"><path class="cls-11" d="M314.81,381.2a10.93,10.93,0,0,0,3.7.07c1.28,0,2.49,0,3.72-.15.62,0,1.19-.11,1.84-.18s1.26-.11,1.88-.14c1.25-.07,2.48-.11,3.74-.28a13,13,0,0,1-3.64,1.12c-1.25.2-2.44.45-3.74.56a24.11,24.11,0,0,1-3.81-.09A7,7,0,0,1,314.81,381.2Z"/></g><g class="cls-21"><path class="cls-11" d="M314.12,386a9,9,0,0,0,3.73,1.25,22.58,22.58,0,0,0,3.95.09,52.33,52.33,0,0,0,8-1.05,18.28,18.28,0,0,1-7.92,2.13,14.94,14.94,0,0,1-4.15-.34A6.56,6.56,0,0,1,314.12,386Z"/></g><g class="cls-21"><path class="cls-11" d="M317.49,366.93A26,26,0,0,1,322,365.6a26.29,26.29,0,0,1,4.66-.65,13.93,13.93,0,0,1-4.43,1.7A14.21,14.21,0,0,1,317.49,366.93Z"/></g><path class="cls-20" d="M241.21,119.68c-12.28,2.64-20.18,14.22-18.88,26.71.92,8.85,6.16,10.5,9.64,15.36a8.47,8.47,0,0,1,1.53,4.05l.52,5.11a6.15,6.15,0,0,0,5.2,5.51,49.92,49.92,0,0,0,13.59.06,6.39,6.39,0,0,0,5.46-5l.71-4.69a11.92,11.92,0,0,1,3.08-6.39c3.71-4,9-7,9-16.85A24.45,24.45,0,0,0,241.21,119.68Z"/><path class="cls-22" d="M243.1,176.45q0-7.87,0-15.75c0-4.22,1-9.93-1.1-13.78-1-1.9-3.52-3.2-5.43-2.17a3.82,3.82,0,0,0-1.52,4.53,5.91,5.91,0,0,0,3.71,3.38c2.48.86,5.41.6,8,.66,3.4.07,8.67.56,10.85-2.6a4.27,4.27,0,0,0,.61-3.84,3.78,3.78,0,0,0-2.47-2.24,4.2,4.2,0,0,0-4.81,2.15,7.91,7.91,0,0,0-.4,3l-.06,27.05"/><path class="cls-23" d="M241.44,119.78c3.14.81,6.16,5.06,7.48,7.61a28.21,28.21,0,0,1,2.79,11.11,55.92,55.92,0,0,1-2,17.83c-.78,3-1.74,5.9-2.81,8.78-1,2.56-1.65,4.51-3.95,6.12-2.73,1.89-6.9,1.86-9.07-.65a6.38,6.38,0,0,0,5.3,5.84,49.92,49.92,0,0,0,13.59.06,6.39,6.39,0,0,0,5.46-5l.71-4.69a11.92,11.92,0,0,1,3.08-6.39c3.71-4,9-7,9-16.85a24.43,24.43,0,0,0-20.2-24.05,27.34,27.34,0,0,0-10,.19A4.11,4.11,0,0,1,241.44,119.78Z"/><path class="cls-24" d="M226.24,137.16a13.38,13.38,0,0,0-.59,3.32,4.83,4.83,0,0,0,.41,2.61,1.85,1.85,0,0,0,2.26.92c.75-.37,1-1.3,1.21-2.1.77-2.83,1.47-5.26,3.58-7.45a24.28,24.28,0,0,0,1.87-1.93,3.88,3.88,0,0,0,.94-2.46,2.13,2.13,0,0,0-1.49-2,2.88,2.88,0,0,0-1.87.37C229,130.22,227.36,133.58,226.24,137.16Z"/><path class="cls-24" d="M226.9,151.1a8.26,8.26,0,0,0,2,3.56,4.31,4.31,0,0,0,1.7,1.27,1.86,1.86,0,0,0,2-.38,2.11,2.11,0,0,0,.15-2.26c-.32-.74-.85-1.36-1.21-2.07-.67-1.36-1-3.83-3-3.81C226.67,147.43,226.58,149.74,226.9,151.1Z"/><path class="cls-14" d="M255.36,187.18a49.39,49.39,0,0,1-18.26,0V175.44a58.51,58.51,0,0,0,18.26-.05Z"/><path class="cls-14" d="M251.11,189.09c0,5.07-9.76,4.69-9.76,0v-5.71h9.76Z"/><path class="cls-16" d="M256.25,187.18a57.89,57.89,0,0,1-20.17,0c-2-.52-1.59-6.47,0-6.47a51.28,51.28,0,0,0,20.17,0C257.58,180.71,257.68,186.79,256.25,187.18Z"/><path class="cls-14" d="M255.36,189a50.93,50.93,0,0,1-18.26,0c-.95-.51-.5-1.35,0-1.84a44.23,44.23,0,0,0,18.26,0C256.05,187.74,256.27,188.8,255.36,189Z"/><path class="cls-16" d="M252.79,190.28a35.35,35.35,0,0,1-13.25,0c-.52-.34-.52-.68,0-1a43.6,43.6,0,0,0,13.25,0C253.43,189.6,253.43,189.94,252.79,190.28Z"/><path class="cls-16" d="M256.25,179.31a54.23,54.23,0,0,1-20.17,0c-.76-.2-.51-1.5,0-1.61a51.85,51.85,0,0,0,20.17,0C257.14,177.7,257.2,179.11,256.25,179.31Z"/><path class="cls-24" d="M200.14,176.15a41.21,41.21,0,0,1,4.66-3.64c1.6-1.12,3.26-2.14,4.95-3.12s3.41-1.88,5.19-2.7a41,41,0,0,1,5.49-2.18,41.1,41.1,0,0,1-4.65,3.64c-1.61,1.12-3.27,2.15-5,3.12s-3.41,1.88-5.19,2.7A40.48,40.48,0,0,1,200.14,176.15Z"/><path class="cls-24" d="M190.64,149.09a37.65,37.65,0,0,1,5.5-.94c1.84-.2,3.68-.3,5.52-.34s3.69,0,5.53.14a36.28,36.28,0,0,1,5.54.74,36.27,36.27,0,0,1-5.51.94c-1.84.21-3.68.31-5.52.34s-3.68,0-5.52-.14A35.07,35.07,0,0,1,190.64,149.09Z"/><path class="cls-24" d="M196.23,124a37.84,37.84,0,0,1,5.66,1c1.85.43,3.67,1,5.46,1.57s3.58,1.26,5.32,2a37.32,37.32,0,0,1,5.12,2.6,39,39,0,0,1-5.65-1c-1.85-.44-3.67-1-5.47-1.57s-3.57-1.27-5.31-2A39.15,39.15,0,0,1,196.23,124Z"/><path class="cls-24" d="M214.93,109.86a13.73,13.73,0,0,1,2.91,1.65,21.5,21.5,0,0,1,2.48,2.08,20.73,20.73,0,0,1,2.16,2.42,13.39,13.39,0,0,1,1.74,2.86,14.5,14.5,0,0,1-2.92-1.64,22.65,22.65,0,0,1-2.48-2.09,23.75,23.75,0,0,1-2.16-2.42A13.78,13.78,0,0,1,214.93,109.86Z"/><path class="cls-24" d="M246.25,97.68a17.61,17.61,0,0,1,.79,3.7,29.55,29.55,0,0,1-.12,7.36,16.84,16.84,0,0,1-.91,3.67,17.36,17.36,0,0,1-.78-3.69,28.5,28.5,0,0,1-.18-3.69,30.42,30.42,0,0,1,.3-3.68A17.55,17.55,0,0,1,246.25,97.68Z"/><path class="cls-24" d="M273.67,119.41a18,18,0,0,1,2.45-2.87,29.14,29.14,0,0,1,5.91-4.38,17.41,17.41,0,0,1,3.46-1.51,18,18,0,0,1-2.45,2.87,29.14,29.14,0,0,1-5.91,4.38A17.67,17.67,0,0,1,273.67,119.41Z"/><path class="cls-24" d="M278.26,132.77a51,51,0,0,1,6.15-2.63c2.08-.77,4.19-1.42,6.31-2s4.27-1.15,6.44-1.59a53.47,53.47,0,0,1,6.61-1,51,51,0,0,1-6.15,2.63c-2.08.77-4.19,1.42-6.31,2s-4.27,1.15-6.44,1.59A53.47,53.47,0,0,1,278.26,132.77Z"/><path class="cls-24" d="M267.21,165.51a82,82,0,0,1,5.87,5.77c1.87,2,3.65,4.05,5.4,6.14s3.44,4.24,5,6.45a77.34,77.34,0,0,1,4.57,6.83,76,76,0,0,1-5.87-5.76c-1.87-2-3.65-4.06-5.41-6.14s-3.43-4.24-5-6.45A76.15,76.15,0,0,1,267.21,165.51Z"/><path class="cls-24" d="M277.11,151.8a35.92,35.92,0,0,1,5.31,1.63c1.73.64,3.4,1.38,5.06,2.17s3.27,1.66,4.84,2.61a34.76,34.76,0,0,1,4.58,3.14,35.12,35.12,0,0,1-5.31-1.63c-1.72-.64-3.4-1.38-5-2.17s-3.27-1.66-4.85-2.61A35.43,35.43,0,0,1,277.11,151.8Z"/><path class="cls-24" d="M219.63,189.93s0,0,.05,0,0,0,0,0,0-.08,0-.12l.06-.29.11-.58c.09-.38.18-.76.3-1.12a12.7,12.7,0,0,1,.9-2.07,11.77,11.77,0,0,1,1.28-1.88,7.66,7.66,0,0,1,1.81-1.61,7.22,7.22,0,0,1-.31,2.41,10.68,10.68,0,0,1-.89,2.12,10.1,10.1,0,0,1-1.33,1.89,8.5,8.5,0,0,1-.87.82,4.87,4.87,0,0,1-.52.37l-.3.16a.83.83,0,0,1-.2.05s-.14,0-.12-.08A.15.15,0,0,1,219.63,189.93Z"/><path class="cls-24" d="M268.7,183.81a6.14,6.14,0,0,1,1.46,1.52,7.83,7.83,0,0,1,.88,1.73,7.45,7.45,0,0,1,.45,1.89,5.44,5.44,0,0,1-.13,2.1,5.81,5.81,0,0,1-1.46-1.52,7.62,7.62,0,0,1-.88-1.73,7.9,7.9,0,0,1-.45-1.89A5.86,5.86,0,0,1,268.7,183.81Z"/><circle class="cls-25" cx="248.22" cy="377.09" r="34.79" transform="translate(-143.57 601.4) rotate(-86.44)"/><path class="cls-26" d="M248.8,411.42c20.75-17,20.9-50.49-.2-68.8a.54.54,0,0,0-.73,0c-20.58,21.38-20.42,47.84-.17,68.69A.82.82,0,0,0,248.8,411.42Z"/><line class="cls-26" x1="248.22" y1="342.3" x2="248.22" y2="411.89"/><line class="cls-26" x1="213.43" y1="377.09" x2="283.02" y2="377.09"/><path class="cls-26" d="M222.44,353.73c10,10.88,38.72,12.95,51.57,0"/><path class="cls-26" d="M274,400.45c-14.69-12.37-39.77-11.18-51.58,0"/><line class="cls-27" x1="248.44" y1="338.39" x2="248.22" y2="327.12"/><line class="cls-27" x1="267.83" y1="342.5" x2="274.01" y2="332.75"/><line class="cls-27" x1="282.1" y1="358.21" x2="292.06" y2="351.96"/><path class="cls-27" d="M287.08,377.09c-.08.18,11.73,0,11.73,0"/><line class="cls-27" x1="282.1" y1="396.03" x2="292.06" y2="402.73"/><line class="cls-27" x1="267.83" y1="410.55" x2="274.01" y2="420.67"/><line class="cls-27" x1="248.44" y1="415.61" x2="248.44" y2="427.26"/><line class="cls-27" x1="229.34" y1="410.55" x2="223.36" y2="420.67"/><line class="cls-27" x1="204.65" y1="402.73" x2="215.23" y2="396.03"/><line class="cls-27" x1="195.28" y1="377.19" x2="208.32" y2="377.19"/><line class="cls-27" x1="204.65" y1="351.96" x2="215.23" y2="358.21"/><line class="cls-27" x1="223.36" y1="333.56" x2="229.34" y2="343.68"/><circle class="cls-24" cx="84.65" cy="168.78" r="38.25" transform="translate(-95.5 225.3) rotate(-80.78)"/><path class="cls-28" d="M62.82,165.88H87v8.47s-6.87-.49-6.81,3.93c.06,4,6.81,3.56,6.81,3.56v8.85H78.6s1.18-7.05-3.71-7.05-3.84,7.05-3.84,7.05H62.82V182s-6.31-.13-6.31-4,6.31-3.59,6.31-3.59Z"/><path class="cls-20" d="M86.91,166h7.43s-1.17-6.4,3.89-6.4,4.09,6.4,4.09,6.4H111v8.48s-6.87-.5-6.8,3.93c.05,4,6.8,3.55,6.8,3.55v8.85h-8.35s1.17-7.05-3.71-7.05-3.84,7.05-3.84,7.05H86.91v-8.72s-6.76.48-6.76-3.78c0-4.47,6.76-3.77,6.76-3.77Z"/><path class="cls-4" d="M62.82,141.56v24.32h8.6s-.18,6.87,3.47,6.87,3.53-6.87,3.53-6.87H87v-8.17s-6.5-.28-6.5-4S87,150.1,87,150.1v-8.54H78.79s.79,7-3.9,6.93-3.65-6.93-3.65-6.93Z"/><circle class="cls-24" cx="391.22" cy="140.98" r="41.12" transform="translate(14.9 317.92) rotate(-45)"/><path class="cls-20" d="M394.66,144.19a5.06,5.06,0,1,1,0-7.16A5.07,5.07,0,0,1,394.66,144.19Z"/><path class="cls-16" d="M403.24,132.06a2.47,2.47,0,1,1,0-3.5A2.48,2.48,0,0,1,403.24,132.06Z"/><path class="cls-16" d="M382.13,152.94a2.47,2.47,0,1,1,0-3.5A2.47,2.47,0,0,1,382.13,152.94Z"/><path class="cls-16" d="M403.14,152.76a2.47,2.47,0,1,1,0-3.5A2.47,2.47,0,0,1,403.14,152.76Z"/><path class="cls-16" d="M382.37,131.77a2.47,2.47,0,1,1,0-3.5A2.48,2.48,0,0,1,382.37,131.77Z"/><path class="cls-4" d="M394.89,116.89a5.22,5.22,0,1,1,0-7.38A5.22,5.22,0,0,1,394.89,116.89Z"/><path class="cls-4" d="M366.91,144.57a5.22,5.22,0,1,1,0-7.38A5.22,5.22,0,0,1,366.91,144.57Z"/><path class="cls-4" d="M394.54,172.48a5.21,5.21,0,1,1,0-7.37A5.21,5.21,0,0,1,394.54,172.48Z"/><path class="cls-4" d="M422.3,144.59a5.22,5.22,0,1,1,0-7.38A5.23,5.23,0,0,1,422.3,144.59Z"/><line class="cls-29" x1="391.03" y1="119.72" x2="391.05" y2="124.68"/><line class="cls-29" x1="390.99" y1="129" x2="391.01" y2="133.95"/><line class="cls-29" x1="391.06" y1="147.75" x2="390.9" y2="152.34"/><line class="cls-29" x1="390.82" y1="156.95" x2="390.91" y2="161.4"/><line class="cls-29" x1="398.26" y1="140.63" x2="402.62" y2="140.75"/><line class="cls-29" x1="407.07" y1="140.87" x2="411.81" y2="140.72"/><line class="cls-29" x1="379.28" y1="140.59" x2="383.94" y2="140.55"/><line class="cls-29" x1="370.13" y1="140.4" x2="375.02" y2="140.54"/><line class="cls-29" x1="383.82" y1="133.23" x2="386.4" y2="135.83"/><line class="cls-29" x1="398.37" y1="133.39" x2="396.08" y2="135.66"/><line class="cls-29" x1="395.77" y1="145.31" x2="398.55" y2="148.12"/><line class="cls-29" x1="386.31" y1="145.32" x2="383.54" y2="148.06"/><circle class="cls-24" cx="337.11" cy="248.78" r="31.46" transform="translate(37.54 541.68) rotate(-80.78)"/><circle class="cls-28" cx="337.11" cy="248.78" r="25" transform="translate(-69.54 147.94) rotate(-22.5)"/><path class="cls-30" d="M337.11,248.78l8.05-31.86a25.4,25.4,0,0,1,19.08,12.25Z"/><path class="cls-11" d="M337.11,248.78,327,225.91a25,25,0,0,0-14.76,25.57Z"/><path class="cls-20" d="M337.11,248.78l-8.86,23.38c12.41,4.9,28-1.06,32.81-16.22Z"/><path class="cls-16" d="M337.11,248.78l20.25-14.64c4.43,5.4,6.1,15,3.7,21.8Z"/><path class="cls-4" d="M337.11,248.78,327,225.91a25.09,25.09,0,0,1,16.22-1.37Z"/><circle class="cls-24" cx="400.76" cy="330.14" r="37.4" transform="translate(-90.77 497.48) rotate(-58.28)"/><line class="cls-31" x1="423.74" y1="287.63" x2="433.12" y2="273.98"/><path class="cls-17" d="M435.86,272a2.87,2.87,0,1,1-3.93-1A2.88,2.88,0,0,1,435.86,272Z"/><path class="cls-32" d="M428.44,275.86a5.32,5.32,0,0,1,2-7.68,6.39,6.39,0,0,1,9.38,5.33,5.47,5.47,0,0,1-6.8,5.66"/><path class="cls-32" d="M426.87,278.11c-5.06-6.19.91-14.66,8.36-13.47a9,9,0,0,1,7.45,7.61,8.89,8.89,0,0,1-2.93,7.77,8.35,8.35,0,0,1-6.68,1.86,11.12,11.12,0,0,1-1.67-.52"/><path class="cls-20" d="M394.8,359.89c-.44,1.52-.75,2.8-.79,3.08a6.4,6.4,0,0,0,.66,4.36c1.26,1.9,3.87,2.26,5.75,3.55a6.8,6.8,0,0,1,1.75,9.07c2.31.09,3.75,2.64,4.06,4.93a11.26,11.26,0,0,1-2.59,8.95,9.25,9.25,0,0,1-8.7,2.92c-3-.69-5.4-3-7-5.61-3.41-5.49-3.93-12.4-2.62-18.72a48.17,48.17,0,0,1,4-11.16c.31-.66,4.62-9,5.11-8.81l3.17,1.32C396.83,353.48,395.6,357.09,394.8,359.89Z"/><path class="cls-20" d="M375.82,372.75a31.63,31.63,0,0,1,1-3.44,2.84,2.84,0,0,1-3.49.76,4.46,4.46,0,0,1-2.23-3,6.38,6.38,0,0,1,2.44-6.53c1.43-1,3.23-1.4,4.72-2.33a14.58,14.58,0,0,0,3.75-3.8l5.16-6.69a15.26,15.26,0,0,0,6.47,3.1c-2.06,2.13-4,3.52-5.75,6.1a43.33,43.33,0,0,0-6.5,15.95c-.45,2.39.07,5.35-1.25,7.47a1.73,1.73,0,0,1-.58.62c-2.69,1.52-4.11-4-4.09-5.6A11.83,11.83,0,0,1,375.82,372.75Z"/><path class="cls-17" d="M387.3,340.34l-4.85,9.4c2.14,4.11,11.21,9.08,15.66,8.08l4.85-9.4Z"/><path class="cls-33" d="M387.3,340.34c-.09,0-2.12,4.55-2.53,4.89a18,18,0,0,0,5.49,4.36,54.54,54.54,0,0,0,6.51,2.84,11.16,11.16,0,0,1-7.55.66,14.88,14.88,0,0,1-6.85-3.46,14.84,14.84,0,0,0,3.4,3.73,24.31,24.31,0,0,0,4.06,2.55c2.44,1.23,5.64,2.5,8.28,1.91l4.85-9.4Z"/><path class="cls-28" d="M383.55,340l15.22-29.5A66,66,0,0,1,415.5,289.7c4-3.28,7.93-5.7,10-4.64s2.37,5.68,2,10.83a65.88,65.88,0,0,1-7.24,25.68L405,351.07C399.9,352.34,385.66,344.8,383.55,340Z"/><ellipse class="cls-24" cx="413.15" cy="309.93" rx="7.11" ry="8.13" transform="translate(-51.71 535) rotate(-62.71)"/><path class="cls-20" d="M417.74,312.29c-1.15,2.22-4.13,2.95-6.66,1.65s-3.66-4.16-2.51-6.38,4.12-2.95,6.65-1.64S418.88,310.08,417.74,312.29Z"/><path class="cls-11" d="M415.5,289.7c4-3.28,7.93-5.7,10-4.64s2.37,5.68,2,10.83C424.25,296,417.75,292.11,415.5,289.7Z"/><path class="cls-34" d="M383.55,340c-.33-.77,1.61-2.56,2.18-3a4.61,4.61,0,0,0,4.82,2.7,7,7,0,0,0,4.55-2.95c1.11-1.43,1.94-3.06,3.17-4.38a6.17,6.17,0,0,1,5-2.16,3,3,0,0,1,1.28.4c1.43.92,1.26,2.8.91,4q3.44-6.86,7.15-13.53a10.13,10.13,0,0,1-7.77-5.48,7.34,7.34,0,0,1,1.33-8.33c-1.16,1-.31,3,.67,4.37.7,1,1.73,2.1,2.94,2a2.8,2.8,0,0,0,2-1.63,140.74,140.74,0,0,0,7.09-12.92q1.56-3.25,3-6.58c.39-.94,2.93-5.32,1.09-5.46a5.87,5.87,0,0,0-2.17.38c-1.44.46-2.86,1-4.25,1.56,1.46-1.66,6.78-5.59,9.43-3.62s1.71,8.12,1.54,10.5a65.88,65.88,0,0,1-7.24,25.68L405,351.07C399.91,352.34,385.66,344.8,383.55,340Z"/><polygon class="cls-17" points="389.16 329.11 379.75 328.7 376.6 334.82 384.19 338.74 389.16 329.11"/><polygon class="cls-17" points="410.65 340.2 416.49 347.8 413.4 353.8 405.68 349.82 410.65 340.2"/><path class="cls-11" d="M397,334.94a8.63,8.63,0,0,1,2.77-3.18c.85-.57,1.8-1,2.48-.64s.89,1.37.91,2.4a8.46,8.46,0,0,1-1,4.09L395,351.45a5.75,5.75,0,0,1-5.18-2.67Z"/><path class="cls-11" d="M417.63,345.6a11.73,11.73,0,0,1,2.48-3.32c.72-.65,1.49-1.16,1.95-.92s.5,1.16.38,2.12a11.64,11.64,0,0,1-1.27,3.95L414,361.27a2.91,2.91,0,0,1-3.55-1.83Z"/><path class="cls-11" d="M377.29,324.79a11.76,11.76,0,0,1,2.49-3.32c.71-.65,1.48-1.16,1.94-.92s.49,1.15.38,2.11a11.86,11.86,0,0,1-1.27,3.95l-7.14,13.84a2.87,2.87,0,0,1-3.53-1.82Z"/><circle class="cls-24" cx="102.5" cy="303.23" r="48.9"/><path class="cls-30" d="M80.65,275.57l-1.44,55.66a4.09,4.09,0,0,0,4.09,4.19h35a4.09,4.09,0,0,0,4.08-3.84l3.4-54.66a4.66,4.66,0,0,0-4.53-4.94L85.43,271A4.66,4.66,0,0,0,80.65,275.57Z"/><path class="cls-35" d="M83.6,277.57,82.35,329.2a3.68,3.68,0,0,0,3.54,3.89h30.26a3.65,3.65,0,0,0,3.53-3.55l2.93-50.72a4.2,4.2,0,0,0-3.91-4.58l-31-.88A4.17,4.17,0,0,0,83.6,277.57Z"/><path class="cls-24" d="M107.28,284.18a2.87,2.87,0,1,1-2.87-2.86A2.87,2.87,0,0,1,107.28,284.18Z"/><path class="cls-36" d="M346.5,419.76l-3.08-.5a5.47,5.47,0,0,0-.31-.74l1.82-2.55a.39.39,0,0,0,0-.5l-1.83-1.83a.39.39,0,0,0-.5,0L340,415.43a6.74,6.74,0,0,0-.74-.3l-.51-3.09a.4.4,0,0,0-.38-.34h-2.59a.4.4,0,0,0-.37.34l-.51,3.09a6,6,0,0,0-.74.3l-2.54-1.82a.41.41,0,0,0-.51,0l-1.83,1.83a.4.4,0,0,0,0,.5l1.82,2.55a6,6,0,0,0-.3.74l-3.09.5a.39.39,0,0,0-.33.38v2.59a.39.39,0,0,0,.33.38l3.09.51c.09.25.19.5.3.74l-1.82,2.54a.39.39,0,0,0,0,.5l1.83,1.83a.41.41,0,0,0,.51,0l2.54-1.82a6.07,6.07,0,0,0,.74.31l.5,3.08a.41.41,0,0,0,.38.34h2.59a.4.4,0,0,0,.38-.34l.51-3.08a6.81,6.81,0,0,0,.74-.31l2.54,1.82a.41.41,0,0,0,.51,0l1.82-1.83a.39.39,0,0,0,0-.5l-1.82-2.55a5.47,5.47,0,0,0,.31-.74l3.08-.5a.4.4,0,0,0,.34-.38v-2.59A.4.4,0,0,0,346.5,419.76Zm-9.39,4.42a2.75,2.75,0,1,1,2.74-2.74A2.75,2.75,0,0,1,337.11,424.18Z"/><path class="cls-36" d="M330.06,189.54a.42.42,0,0,0,.51,0l1.83-1.83a.42.42,0,0,0,0-.51l-1.83-2.54a6.81,6.81,0,0,0,.31-.74l3.09-.51a.4.4,0,0,0,.33-.38v-2.58A.4.4,0,0,0,334,180l-3.09-.51a6.07,6.07,0,0,0-.31-.74l1.83-2.54a.42.42,0,0,0,0-.51l-1.83-1.83a.42.42,0,0,0-.51,0l-2.54,1.83a6.81,6.81,0,0,0-.74-.31l-.51-3.09a.4.4,0,0,0-.38-.33h-2.58a.4.4,0,0,0-.38.33l-.51,3.09a6.81,6.81,0,0,0-.74.31l-2.54-1.83a.41.41,0,0,0-.51,0l-1.83,1.82a.42.42,0,0,0,0,.51l1.83,2.54a6.81,6.81,0,0,0-.31.74l-3.09.51a.4.4,0,0,0-.33.38V183a.4.4,0,0,0,.33.38l3.09.51a6.81,6.81,0,0,0,.31.74l-1.83,2.54a.42.42,0,0,0,0,.51l1.83,1.83a.42.42,0,0,0,.51,0l2.54-1.83a6.81,6.81,0,0,0,.74.31l.51,3.08a.4.4,0,0,0,.38.34h2.58a.4.4,0,0,0,.38-.33l.51-3.09a6.81,6.81,0,0,0,.74-.31Zm-5.46-5.08a2.75,2.75,0,1,1,2.75-2.75A2.75,2.75,0,0,1,324.6,184.46Z"/><path class="cls-36" d="M145.19,421.32l-5.29-.88c-.16-.43-.33-.86-.53-1.27l3.12-4.35a.69.69,0,0,0-.05-.87l-3.13-3.13a.71.71,0,0,0-.87-.06l-4.36,3.13a11,11,0,0,0-1.27-.53l-.86-5.29a.7.7,0,0,0-.66-.57h-4.43a.7.7,0,0,0-.65.57l-.87,5.29a11.73,11.73,0,0,0-1.27.53l-4.35-3.13a.71.71,0,0,0-.87.06L115.71,414a.7.7,0,0,0,0,.87l3.13,4.36a11,11,0,0,0-.53,1.27l-5.29.86a.71.71,0,0,0-.58.66v4.43a.71.71,0,0,0,.58.65l5.29.87a11.73,11.73,0,0,0,.53,1.27l-3.13,4.35a.7.7,0,0,0,0,.87l3.14,3.13a.69.69,0,0,0,.86.06l4.36-3.13a11.73,11.73,0,0,0,1.27.53l.87,5.28a.68.68,0,0,0,.65.58h4.44a.68.68,0,0,0,.64-.57l.88-5.29a11.58,11.58,0,0,0,1.26-.53l4.36,3.13a.72.72,0,0,0,.87-.05l3.13-3.14a.69.69,0,0,0,.05-.87l-3.12-4.36a10.8,10.8,0,0,0,.53-1.26l5.28-.87a.69.69,0,0,0,.58-.65V422A.68.68,0,0,0,145.19,421.32Zm-16.11,7.57a4.71,4.71,0,1,1,4.71-4.71A4.71,4.71,0,0,1,129.08,428.89Z"/><path class="cls-36" d="M421.08,225.08a.62.62,0,0,0-.51-.57l-4.7-.78c-.14-.38-.3-.76-.47-1.12l2.78-3.88a.63.63,0,0,0-.05-.77l-2.79-2.79a.61.61,0,0,0-.77,0l-3.88,2.78a9.14,9.14,0,0,0-1.12-.47l-.77-4.71a.63.63,0,0,0-.58-.51h-3.94a.61.61,0,0,0-.58.51l-.78,4.71a10,10,0,0,0-1.13.47l-3.87-2.78a.62.62,0,0,0-.77,0L394.36,218a.62.62,0,0,0,0,.77l2.78,3.88a8.67,8.67,0,0,0-.47,1.13l-4.71.77a.62.62,0,0,0-.51.58V229a.63.63,0,0,0,.51.58l4.71.77a9.28,9.28,0,0,0,.47,1.13l-2.78,3.87a.63.63,0,0,0,0,.78l2.79,2.78a.62.62,0,0,0,.77.05l3.88-2.78a11,11,0,0,0,1.12.47l.78,4.7a.61.61,0,0,0,.58.51h3.94a.6.6,0,0,0,.57-.51l.78-4.7a11.2,11.2,0,0,0,1.13-.47l3.87,2.78a.6.6,0,0,0,.77-.05l2.79-2.79a.63.63,0,0,0,.05-.77l-2.78-3.87a11.2,11.2,0,0,0,.47-1.13l4.7-.77a.63.63,0,0,0,.51-.58Zm-14.83,6.16a4.19,4.19,0,1,1,4.18-4.18A4.18,4.18,0,0,1,406.25,231.24Z"/><path class="cls-36" d="M169.33,103.9l-5.89-1a14.47,14.47,0,0,0-.59-1.41l3.48-4.85a.78.78,0,0,0-.06-1l-3.49-3.49a.77.77,0,0,0-1-.06L157,95.63a12.62,12.62,0,0,0-1.41-.58l-1-5.89a.76.76,0,0,0-.72-.64h-4.94a.76.76,0,0,0-.72.64l-1,5.89a12.36,12.36,0,0,0-1.41.59L141,92.15a.78.78,0,0,0-1,.06l-3.49,3.49a.77.77,0,0,0,0,1l3.47,4.85a12.29,12.29,0,0,0-.58,1.41l-5.89,1a.77.77,0,0,0-.64.73v4.93a.76.76,0,0,0,.64.72l5.89,1a14.4,14.4,0,0,0,.58,1.41l-3.48,4.85a.78.78,0,0,0,.06,1L140,122a.77.77,0,0,0,1,.06l4.85-3.48a12.36,12.36,0,0,0,1.41.59l1,5.89a.77.77,0,0,0,.72.64h4.94a.76.76,0,0,0,.72-.64l1-5.89a11.79,11.79,0,0,0,1.42-.59l4.85,3.48a.77.77,0,0,0,1,0l3.49-3.5a.77.77,0,0,0,.06-1l-3.48-4.85a13.67,13.67,0,0,0,.59-1.42l5.89-1a.78.78,0,0,0,.64-.73v-4.94A.78.78,0,0,0,169.33,103.9Zm-17.94,8.44a5.25,5.25,0,1,1,5.24-5.25A5.25,5.25,0,0,1,151.39,112.34Z"/><path class="cls-36" d="M117,228.05l3.95.65a10,10,0,0,0,.4,1l-2.34,3.25a.52.52,0,0,0,0,.65l2.34,2.35a.53.53,0,0,0,.65,0l3.26-2.33a7.89,7.89,0,0,0,1,.39l.65,3.95a.52.52,0,0,0,.48.44h3.32a.53.53,0,0,0,.48-.43l.65-4a7.89,7.89,0,0,0,.95-.39l3.25,2.33a.52.52,0,0,0,.65,0l2.35-2.35a.5.5,0,0,0,0-.64l-2.33-3.26a7.89,7.89,0,0,0,.39-1l4-.65a.52.52,0,0,0,.44-.49v-3.31a.51.51,0,0,0-.43-.48l-4-.66a7.75,7.75,0,0,0-.39-.94l2.33-3.26a.51.51,0,0,0,0-.65l-2.35-2.34a.51.51,0,0,0-.64,0l-3.26,2.34a10,10,0,0,0-.95-.4l-.65-3.95a.52.52,0,0,0-.49-.43h-3.31a.51.51,0,0,0-.48.43l-.65,3.95a9,9,0,0,0-1,.4l-3.26-2.34a.53.53,0,0,0-.65,0l-2.34,2.34a.53.53,0,0,0,0,.65l2.34,3.26a10,10,0,0,0-.4,1l-3.95.64a.53.53,0,0,0-.43.49v3.31A.52.52,0,0,0,117,228.05Zm12-5.66a3.52,3.52,0,1,1-3.52,3.52A3.53,3.53,0,0,1,129.08,222.39Z"/><text class="cls-37" transform="translate(160.71 57.98)">G<tspan class="cls-38" x="20.5" y="0">amific</tspan><tspan class="cls-39" x="105" y="0">a</tspan><tspan class="cls-40" x="121.27" y="0">tion</tspan></text></g></g></svg>