<?xml version="1.0" encoding="utf-8" ?><svg xmlns="http://www.w3.org/2000/svg" xmlns:xlink="http://www.w3.org/1999/xlink" width="1024" height="1024" viewBox="0 0 1024 1024"><path fill="#940100" transform="scale(2 2)" d="M304.509 113.342C320.423 113.78 324.621 125.647 322.729 139.002C332.478 140.207 347.471 145.136 356.526 148.932C428.922 179.28 459.563 250.618 443.535 325.288C438.979 346.512 439.823 349.475 417.124 352.567C405.032 354.214 401.137 359.192 391.794 366.44C316.411 424.914 296.431 389.523 224.693 359.685C208.734 354.116 193.228 346.94 176.374 344.291C152.345 346.544 120.197 360.621 94.3098 365.579C84.606 367.438 64.0698 370.321 64.775 353.741C65.0789 346.593 89.102 328.259 95.1642 323.158L120.199 302.027C124.583 298.333 129.185 294.298 133.662 290.781C139.32 246.445 148.965 203.032 183.286 171.487C209.447 147.442 250.63 134.821 286.106 136.511C284.183 123.826 291.939 114.651 304.509 113.342ZM144.207 262.939C146.242 262.066 149.423 260.469 151.309 259.751C163.451 209.773 189.433 169.123 240.091 150.18C243.226 149.007 252.625 146.529 254.492 145.044C190.538 153.817 153.705 202.076 144.207 262.939Z"/><path fill="#FCBF49" transform="scale(2 2)" d="M198.426 288.671C266.67 288.592 345.914 310.87 399.679 352.471C396.827 354.994 393.057 357.653 390.02 359.977C359.322 383.475 329.322 403.546 291.104 383.799C277.507 378.772 262.023 369.717 248.761 363.327C203.839 341.681 135.977 321.289 86.2231 338.433L119.244 310.467C121.631 308.446 135.059 296.911 136.739 296.437C152.652 291.947 183.129 288.864 198.426 288.671Z"/><path fill="#FCBF49" transform="scale(2 2)" d="M291.104 146.254C291.847 146.44 294.282 148.398 295.234 148.832C302.748 152.256 308.758 151.202 315.75 147.44C344.404 170.62 360.241 208.514 364.379 244.319C365.93 257.742 364.994 270.765 365.49 284.075C341.227 271.803 320.846 263.445 294.548 255.792C260.968 245.309 225.917 241.076 191.044 247.097C208.077 190.565 237.628 164.173 291.104 146.254Z"/><path fill="#D62828" transform="scale(2 2)" d="M322.729 145.044C324.916 145.373 327.257 145.884 329.408 146.418C415.235 167.709 456.206 242.683 436.827 327.308C436.602 328.581 436.11 330.441 435.81 331.747C423.721 317.54 405.616 306.744 389.948 296.973C384.313 293.459 376.732 290.468 371.505 286.723C371.244 283.416 371.334 279.582 371.479 276.25C373.238 235.762 363.197 193.394 337.983 161.055C333.325 155.08 327.74 150.527 322.729 145.044Z"/><path fill="#570402" transform="scale(2 2)" d="M392.719 192.537C398.609 192.379 408.478 208.288 410.47 212.825C411.792 215.835 410.639 217.802 407.727 218.957C404.634 219.15 404.171 218.629 402.61 215.872C398.829 209.121 383.464 196.075 392.719 192.537Z"/><path fill="#1E6590" transform="scale(2 2)" d="M142.73 270.577C147.754 266.938 162.471 261.291 168.469 259.225C235.397 236.166 305.299 260.873 365.753 290.781L365.696 290.976C360.076 310.988 361.598 309.613 342.598 312.882C280.298 289.558 226.341 274.314 157.965 285.979C152.867 286.849 145.45 288.734 140.533 288.671C140.402 285.487 142.006 273.838 142.73 270.577Z"/><path fill="#FCBF49" transform="scale(2 2)" d="M254.492 145.044C262.525 143.572 276.092 142.251 284.193 142.574C237.798 155.227 203.413 190.025 188.383 234.965C186.944 239.266 185.895 243.786 184.501 248.073C172.354 251.852 163.151 255.294 151.309 259.751C163.451 209.773 189.433 169.123 240.091 150.18C243.226 149.007 252.625 146.529 254.492 145.044Z"/><path fill="#003049" transform="scale(2 2)" d="M365.753 290.781C374.841 295.2 438.07 330.636 432.936 341.143C429.933 343.747 409.484 348.541 404.973 348.839L404.712 348.682C400.722 346.234 397.132 342.809 393.263 340.17C378.817 330.315 363.288 322.004 347.209 315.139C345.692 314.491 344.01 313.707 342.598 312.882C361.598 309.613 360.076 310.988 365.696 290.976L365.753 290.781Z"/><path fill="#D62828" transform="scale(2 2)" d="M127.841 338.433C139.294 337.815 151.499 339.975 162.873 341.143C159.985 342.036 156.654 342.591 153.684 343.318C136.12 347.619 119.175 353.653 101.609 357.956C95.4284 359.43 71.3489 364.862 70.5073 355.528C69.33 342.47 119.727 338.549 127.841 338.433Z"/><path fill="#A6D5E2" transform="scale(2 2)" d="M302.434 119.567C307.035 118.769 311.708 120.518 314.656 124.14C317.603 127.762 318.366 132.693 316.651 137.036C314.936 141.379 311.01 144.458 306.383 145.089C299.405 146.04 292.952 141.226 291.875 134.267C290.799 127.308 295.495 120.769 302.434 119.567Z"/></svg>