<?xml version="1.0" encoding="utf-8" ?><svg xmlns="http://www.w3.org/2000/svg" xmlns:xlink="http://www.w3.org/1999/xlink" width="1024" height="1024" viewBox="0 0 1024 1024"><path fill="#003049" transform="scale(2 2)" d="M218.574 72.757C230.482 71.8929 235.395 76.8026 243.691 83.8007C262.689 99.8267 271.856 74.8666 288.029 72.9551C302.633 70.7365 313.592 81.7415 318.437 94.4884C321.348 102.151 324.807 133.241 326.139 142.765L353.932 142.754C357.579 142.743 361.143 142.37 364.781 142.623C372.223 143.115 375.749 154.406 369.552 158.604C358.351 166.192 341.582 168.442 332.266 174.719C353.158 177.468 357.253 208.342 338.64 217.627C336.177 218.845 333.736 219.811 331.21 221.087C325.757 235.363 323.64 238.101 316.225 250.658C329.316 253.486 360.137 274.746 369.839 285.356C374.029 289.938 364.676 291.79 361.848 293.725C392.473 325.266 403.652 351.251 402.522 396.825C402.349 403.785 403.471 409.03 397.409 414.713C380.276 430.776 351.845 434.348 329.028 434.346L308.714 434.329L190.041 434.338C177.953 434.345 168.89 434.688 156.762 432.438C141.289 429.567 108.639 421.018 109.223 400.474C109.476 391.582 108.779 381.211 109.74 372.463C113.421 338.962 127.476 316.774 150.138 293.725C138.554 288.786 139.506 288.45 148.366 280.124C161.308 267.963 178.716 256.49 195.44 250.658C188.393 242.84 182.969 231.292 180.409 221.087C154.513 217.322 148.616 183.637 178.686 173.412C170.518 170.211 138.513 162.243 139.752 151.758C141.191 139.575 152.646 142.747 161.46 142.763L177.881 142.761C180.72 142.75 184.44 142.562 187.155 142.765C187.635 137.161 189.3 129.266 190.166 123.394L192.744 106.205C195.215 90.4338 200.192 75.9093 218.574 72.757Z"/><path fill="#F77F00" transform="scale(2 2)" d="M184.779 174.719C228.681 189.501 282.061 186.363 326.139 175.347L326.139 179.006C340.973 181.402 350.884 193.712 341.421 207.391C337.499 213.061 332.625 214.154 326.139 215.284C322.62 229.678 318.368 238.311 308.714 249.579C287.122 274.318 251.378 281.522 222.452 265.377C201.046 253.429 191.577 237.967 184.779 215.284C162.613 217.141 153.405 182.501 183.814 179.006C184.029 177.734 184.478 176.014 184.779 174.719Z"/><path fill="#0A809C" transform="scale(2 2)" d="M356.161 297.471C357.083 297.625 359.468 299.877 360.186 300.57C378.664 318.398 392.478 343.305 395.328 369.038C396.137 376.345 399.028 405.091 393.465 410.363C375.967 426.946 343.471 428.299 320.227 428.305L289.312 428.299L259.677 428.299C268.399 416.555 281.592 403.911 291.589 393.038L330.481 351.096C336.04 345.195 340.688 339.937 346.461 334.167C342.703 325.847 338.371 317.507 334.745 309.185C341.979 305.232 348.808 301.331 356.161 297.471Z"/><path fill="#0A809C" transform="scale(2 2)" d="M155.67 297.471C162.957 300.395 171.402 305.562 178.686 309.185C174.69 314.965 169.147 327.391 166.324 334.167C173.477 342.52 182.291 351.878 189.763 360.037L241.617 417.006C245.011 420.718 248.447 424.837 252.041 428.299C242.451 428.201 232.726 428.291 223.125 428.299L189.347 428.3C167.075 428.311 133.522 426.466 118.412 408.834C113.13 402.672 115.041 384.232 115.695 376.432C118.185 346.724 132.701 316.851 155.67 297.471Z"/><path fill="#D62828" transform="scale(2 2)" d="M199.895 100.554C201.473 89.4036 210.776 77.3678 223.318 78.8523C230.825 79.741 235.865 84.9048 241.456 89.3135C265.09 107.986 275.834 76.1415 294.098 78.826C304.635 80.3747 312.114 90.591 313.656 100.554C315.543 107.8 317.105 121.602 318.113 129.498L195.44 129.498C197.118 119.897 197.872 110.13 199.895 100.554Z"/><path fill="#F74F22" transform="scale(2 2)" d="M199.895 100.554C201.473 89.4036 210.776 77.3678 223.318 78.8523C230.825 79.741 235.865 84.9048 241.456 89.3135C265.09 107.986 275.834 76.1415 294.098 78.826C304.635 80.3747 312.114 90.591 313.656 100.554C312.7 99.6617 311.256 97.5911 310.489 96.5353C303.356 86.4704 291.973 81.2956 281.144 89.4012C242.541 120.415 241.884 82.4565 218.985 85.3767C209.01 86.6487 205.408 93.5483 199.895 100.554Z"/><path fill="#D62828" transform="scale(2 2)" d="M145.664 152.696C145.893 149.874 146.534 148.62 149.642 148.602L365.244 148.589C366.598 150.133 367.234 150.693 366.674 152.696C365.041 155.012 359.481 157.297 356.788 158.448C296.377 184.258 227.812 185.624 166.268 162.705C162.775 161.404 147.254 155.266 145.664 152.696Z"/><path fill="#F74F22" transform="scale(2 2)" d="M145.664 152.696C145.893 149.874 146.534 148.62 149.642 148.602L365.244 148.589C366.598 150.133 367.234 150.693 366.674 152.696C361.794 151.061 348.315 151.557 342.366 151.297C312.004 150.001 278.881 150.271 248.253 150.37C237.258 150.405 148.407 149.875 145.664 152.696Z"/><path fill="#0A809C" transform="scale(2 2)" d="M198.819 255.446C200.369 255.49 203.796 260.211 203.942 261.509C206.552 284.711 208.736 308.051 214.026 330.856C220.627 359.322 235.537 383.893 243.422 410.56C235.497 399.689 223.351 387.668 214.123 377.846C210.966 374.645 208.205 371.272 205.187 367.964L185.642 346.533C182.255 342.787 176.811 336.465 173.178 333.255C177.347 325.205 182.498 315.074 185.86 306.622C185.812 306.579 185.763 306.535 185.715 306.492L185.47 306.279C182.488 303.656 177.223 301.531 173.527 299.596L150.138 287.346C159.576 275.213 185.08 260.983 198.819 255.446Z"/><path fill="#0A809C" transform="scale(2 2)" d="M312.481 255.446C321.328 255.959 354.992 277.772 362.703 287.346C351.678 292.829 337.476 300.078 327.041 306.622C330.759 315.442 335.781 324.157 339.212 333.255C336.261 337.203 331.912 340.747 328.546 344.399L297.562 377.846C287.632 388.52 277.699 399.646 268.031 410.56C271.91 397.566 280.403 384.314 285.158 371.249C298.924 333.424 304.691 308.782 309.199 267.689C309.674 263.362 308.861 257.639 312.481 255.446Z"/><path fill="#F74F22" transform="scale(2 2)" d="M252.041 313.979C254.889 313.96 257.706 313.945 260.554 313.979C266.618 331.893 274.722 349.113 280.718 367.07C274.155 384.107 264.993 402.044 257.746 419.088C257.082 420.684 256.641 421.478 255.776 422.981C253.384 419.376 249.266 408.111 247.39 403.488C244.837 397.193 235.716 371.442 232.586 367.07C235.793 356.831 246.714 322.787 252.041 313.979Z"/><path fill="#F77F00" transform="scale(2 2)" d="M303.339 263.461L303.533 263.499C304.312 265.506 296.532 313.774 295.571 317.766C287.928 309.714 269.408 292.037 258.522 290.3C245.066 288.152 229.727 307.28 220.715 313.737L220.373 313.979C219.381 315.45 218.339 316.569 217.048 317.766C215.454 300.314 212.196 282.446 210.18 264.851C242.849 286.933 272.264 284.384 303.339 263.461Z"/><path fill="#F77F00" transform="scale(2 2)" d="M205.328 134.503L306.388 134.498C310.542 134.494 315.064 134.352 319.171 134.503C319.608 137.292 319.891 139.962 320.193 142.765L308.714 142.765L192.899 142.765L194.279 134.503L205.328 134.503Z"/><path fill="#F77F00" transform="scale(2 2)" d="M271.408 304.28C277.441 308.195 289.434 319.279 293.91 325.052C291.542 334.843 288.056 344.2 285.518 353.896C285.252 354.352 284.263 356.674 283.998 357.266C281.742 352.769 279.917 347.065 278.024 342.312L271.289 325.447C269.721 321.452 267.869 316.984 266.937 312.825C268.209 310.089 269.97 306.99 271.408 304.28Z"/><path fill="#F77F00" transform="scale(2 2)" d="M240.652 304.28C241.175 304.957 245.013 311.613 245.74 312.825C240.688 327.005 234.861 343.406 229.066 357.266C228.449 356.183 227.989 355.041 227.491 353.896C224.021 345.299 220.8 334.058 218.574 325.052C225.354 318.563 232.941 309.634 240.652 304.28Z"/><path fill="#F74F22" transform="scale(2 2)" d="M255.776 296.04C259.697 296.054 263.752 298.537 266.937 300.579C265.361 303.092 263.695 305.514 262.11 308.073C260.769 308.168 259.113 308.094 257.746 308.073L250.043 308.073C248.109 305.271 246.924 303.729 245.74 300.579C248.726 298.653 252.296 296.836 255.776 296.04Z"/></svg>