<?xml version="1.0" encoding="utf-8" ?><svg xmlns="http://www.w3.org/2000/svg" xmlns:xlink="http://www.w3.org/1999/xlink" width="1024" height="1024" viewBox="0 0 1024 1024"><path fill="#003049" transform="scale(2 2)" d="M365.292 120.863C360.125 109.863 369.507 98.2185 378.765 94.113C391.19 88.603 400.582 102.643 408.123 110.266L433.96 136.292C443.777 146.307 454.146 155.814 463.66 166.131C467.586 170.388 469.109 175.46 466.531 181.06C464.728 184.974 454.356 195.227 450.367 196.682C444.874 198.684 440.211 196.48 436.213 192.809L435.847 192.94C433.167 193.875 430.005 194.374 427.242 194.996C405.388 199.921 377.634 226.435 360.585 242.246C360.988 242.871 361.283 243.266 361.588 243.949C374.136 241.27 387.365 239.835 399.959 237.127C410.841 234.788 404.949 244.927 402.985 251.221L396.211 273.129C394.906 277.264 393.341 281.674 392.154 285.805L392.391 286.057C413.523 308.248 426.827 297.958 399.558 325.129C403.91 329.885 408.285 334.566 412.79 339.194C415.099 341.759 420.751 346.56 416.201 349.582C408.028 355.009 399.634 360.287 391.22 365.313C393.472 376.629 396.419 387.823 398.424 399.177C399.578 405.714 404.624 414.941 393.314 412.296C359.355 404.354 324.378 401.027 289.648 398.639C286.389 398.415 286.218 396.552 285.935 393.785C279.806 397.423 241.433 417.321 238.356 404.771C237.318 405.126 237.292 405.179 236.493 405.97C236.697 400.871 236.496 394.664 236.494 389.438L236.493 356.792L236.493 348.158L236.493 306.99L236.505 266.77C236.506 262.544 237.452 246.862 235.533 243.949C236.027 241.959 236.662 241.496 238.356 240.439C234.816 237.612 236.292 233.587 240.658 233.612C253.623 233.687 273.356 240.469 282.854 248.457C300.049 225.089 318.425 201.504 336.17 178.451L350.045 160.277C359.139 148.355 356.848 151.634 360.68 137.335C362.105 132.019 363.57 126.07 365.292 120.863ZM396.075 248.457C396.283 247.626 396.716 246.433 396.993 245.587L391.22 246.382C391.986 247.173 394.822 247.939 396.075 248.457Z"/><path fill="#FBAE31" transform="scale(2 2)" d="M354.024 247.659L354.461 247.929C356.774 248.01 358.586 245.063 360.326 245.413L360.585 246.382C358.896 255.775 384.889 247.121 391.22 246.382C391.986 247.173 394.822 247.939 396.075 248.457C394.929 251.597 393.646 256.182 392.583 259.497L383.506 287.766C385.847 290.855 402.526 304.328 405.997 306.99C383.486 335.1 386.207 315.778 408.255 345.389L408.448 345.654C400.837 351.913 390.897 355.362 383.506 361.987C384.116 371.852 389.452 394.905 392.154 404.771C368.54 398.043 338.539 394.945 314.176 393.31C305.807 392.748 297.797 391.619 289.31 391.777C322.276 364.038 333.788 321.507 313.773 282.305C327.041 271.528 340.72 257.694 354.024 247.659Z"/><path fill="#F77F00" transform="scale(2 2)" d="M238.356 240.439C280.115 241.006 317.245 281.42 316.346 323.233C315.554 360.06 290.105 392.078 253.913 399.921C249.774 400.818 244.513 401.271 240.661 402.407C239.905 403.209 239.167 404.024 238.356 404.771C237.318 405.126 237.292 405.179 236.493 405.97C236.697 400.871 236.496 394.664 236.494 389.438L236.493 356.792L236.493 348.158L236.493 306.99L236.505 266.77C236.506 262.544 237.452 246.862 235.533 243.949C236.027 241.959 236.662 241.496 238.356 240.439Z"/><path fill="#D62828" transform="scale(2 2)" d="M243.573 309.464C254.137 306.604 259.97 301.454 266.468 292.992C271.173 306.352 278.363 312.661 291.933 316.36C279.831 328.754 275.774 339.94 274.189 356.792C262.214 345.323 252.169 344.317 236.493 348.158L236.493 306.99C238.718 306.646 239.522 307.588 239.841 305.367C240.105 308.081 241.217 308.39 243.573 309.464Z"/><path fill="#711313" transform="scale(2 2)" d="M239.841 305.367C242.642 299.61 258.158 299.706 263.487 282.06C263.907 280.673 265.022 277.427 266.463 277.194C273.558 276.044 271.547 282.622 271.827 285.454C273.048 297.769 284.918 311.183 298.228 309.482C305.828 308.511 307.11 313.472 301.641 318.079C289.969 325.625 283.608 339.282 281.578 352.648C280.915 357.012 281.808 374.776 271.558 363.302C262.026 352.632 248.909 350.213 236.493 356.792L236.493 348.158C252.169 344.317 262.214 345.323 274.189 356.792C275.774 339.94 279.831 328.754 291.933 316.36C278.363 312.661 271.173 306.352 266.468 292.992C259.97 301.454 254.137 306.604 243.573 309.464C241.217 308.39 240.105 308.081 239.841 305.367Z"/><path fill="#FCBF49" transform="scale(2 2)" d="M360.585 242.246C360.988 242.871 361.283 243.266 361.588 243.949C360.989 244.976 360.915 245.232 360.585 246.382L360.326 245.413C358.586 245.063 356.774 248.01 354.461 247.929L354.024 247.659C356.02 245.849 358.469 243.958 360.585 242.246Z"/><path fill="#F77F00" transform="scale(2 2)" d="M359.513 159.64C363.17 161.389 387.641 187.552 391.243 191.34C393.773 194 396.64 197.012 399.558 199.214C396.569 201.386 392.988 204.608 390.11 207.067L374.12 220.743C356.148 235.999 338.296 251.279 320.594 266.858C317.275 269.804 313.655 272.598 310.563 275.733C302.656 264.959 299.574 261.557 289.31 252.807L289.808 251.935C291.497 248.912 293.89 245.823 296.012 243.051L349.038 173.699C352.564 169.043 356.225 164.455 359.513 159.64Z"/><path fill="#FBAE31" transform="scale(2 2)" d="M383.506 99.8222C390.472 100.035 397.675 109.988 402.649 114.97L431.325 143.848C440.783 153.351 450.654 162.548 459.659 172.493C463.844 177.116 451.04 188.276 448.204 190.096C445.343 189.931 443.888 189.723 441.738 187.571L394.114 139.524C390.317 135.683 372.611 118.881 371.071 115.752C368.539 110.61 379.672 101.512 383.506 99.8222Z"/><path fill="#FBAE31" transform="scale(2 2)" d="M371.128 126.892C372.341 127.77 375.77 131.367 376.997 132.614L412.075 167.967C416.656 172.557 426.167 181.868 429.922 186.805C425.546 187.499 422.363 188.684 418.181 190.096C414.025 191.545 409.713 193.295 405.997 195.643C392.464 182.442 376.544 167.354 364.186 153.134C366.747 144.575 368.892 135.575 371.128 126.892Z"/><path fill="#003049" transform="scale(2 2)" d="M232.623 242.246C233.84 242.759 234.458 243.22 235.533 243.949C237.452 246.862 236.506 262.544 236.505 266.77L236.493 306.99L236.493 348.158L236.493 356.792L236.494 389.438C236.496 394.664 236.697 400.871 236.493 405.97C235.981 413.671 230.976 423.409 224.899 428.101C188.719 456.035 146.558 405.541 180.34 375.08C189.208 367.083 199.812 366.944 211.104 367.997L211.106 326.956C211.105 319.44 211.246 311.589 211.104 304.112C208.817 304.839 206.415 306.136 204.186 307.052C178.221 317.723 150.942 325.291 123.156 329.338C119.803 329.826 115.933 330.246 112.688 331.088L112.245 331.206L112.255 396.376C112.257 400.639 112.469 404.063 111.689 408.334C108.181 427.522 89.143 439.596 70.2667 435.713C51.349 431.82 39.6877 411.739 43.8774 393.334C48.61 372.544 68.0208 363.449 87.7451 367.997L87.7428 313.217C87.7386 307.148 84.9419 288.038 91.1657 287.321C139.62 281.741 175.977 271.094 218.869 249.49C223.305 247.255 227.806 243.479 232.623 242.246Z"/><path fill="#D62828" transform="scale(2 2)" d="M94.7118 294.405C102.8 292.423 112.517 291.703 120.967 290.227C155.576 284.18 189.651 273.266 220.712 256.751C225.001 254.471 229.485 249.298 229.442 254.585L229.442 296.785C226.212 297.33 221.536 299.049 218.06 299.931L218.06 296.785C216.708 295.521 216.406 295.325 214.779 294.405L214.42 294.51C210.928 295.547 207.076 297.886 203.652 299.352C169.308 314.061 141.43 318.024 105.854 324.192C105.359 325.989 105.331 326.475 105.226 328.341C104.887 328.066 95.8979 328.334 94.7118 328.341L94.7118 301.821L94.7118 294.405Z"/><path fill="#E74C2B" transform="scale(2 2)" d="M94.7118 294.405C102.8 292.423 112.517 291.703 120.967 290.227C155.576 284.18 189.651 273.266 220.712 256.751C225.001 254.471 229.485 249.298 229.442 254.585C227.215 254.938 221.668 259.279 219.378 260.664C189.886 278.497 130.314 300.67 94.7118 301.821L94.7118 294.405Z"/><path fill="#F77F00" transform="scale(2 2)" d="M218.06 299.931C221.536 299.049 226.212 297.33 229.442 296.785L229.456 393.689C229.462 398.258 229.896 403.363 228.942 407.833C224.436 428.928 197.77 435.309 183.171 420.444C172.804 409.889 173.157 392.001 183.82 381.846C194.347 371.821 202.807 373.391 214.779 377.599C220.209 374.836 218.048 363.132 218.042 357.135L218.056 319.577C218.055 313.702 217.798 305.654 218.06 299.931Z"/><path fill="#F77F00" transform="scale(2 2)" d="M94.7118 328.341C95.8979 328.334 104.887 328.066 105.226 328.341C104.946 333.047 105.215 341.281 105.215 346.233L105.221 383.886C105.225 390.239 105.38 396.737 105.224 403.066C104.968 417.685 90.899 430.495 76.2997 429.499C37.5364 426.856 44.5861 366.237 83.7872 374.335C87.3422 375.07 94.1506 379.65 94.5225 372.991C94.8166 367.723 94.7177 362.448 94.7187 357.179L94.7118 328.341Z"/><path fill="#003049" transform="scale(2 2)" d="M291.174 126.892C297.987 126.019 296.159 133.088 298.438 137.213C302.947 145.376 312.118 147.322 315.691 157.238C319.287 166.526 312.65 185.669 305.02 181.449C300.62 179.015 309.135 167.917 290.172 157.348C288.756 163.1 287.387 171.385 286.335 177.255L281.23 205.998C279.929 213.614 279.854 222.099 275.574 228.691C266.835 237.974 255.045 237.989 245.359 229.884C225.792 213.51 250.741 186.666 273.182 207.043C275.026 199.228 276.636 189.279 278.13 181.232L284.566 148.354C285.671 142.764 286.265 128.881 291.174 126.892ZM309.778 167.923C309.784 167.152 309.846 165.522 309.778 164.822L309.453 164.14C308.989 163.155 308.416 162.699 307.557 163.556L309.778 167.923Z"/><path fill="#D62828" transform="scale(2 2)" d="M255.097 207.043C270.741 206.138 279.408 223.632 262.869 228.691C249.706 232.029 236.284 211.294 255.097 207.043Z"/><path fill="#F77F00" transform="scale(2 2)" d="M293.106 142.001C299.577 150.152 310.135 154.264 309.778 164.822L309.453 164.14C308.989 163.155 308.416 162.699 307.557 163.556C304.034 158.614 297.651 152.644 291.933 150.384C292.144 147.749 292.572 144.612 293.106 142.001Z"/><path fill="#003049" transform="scale(2 2)" d="M126.31 143.34C144.964 141.713 156.361 166.061 148.935 167.461C146.019 168.012 142.902 164.824 140.553 163.478C132.906 158.234 126.296 163.071 118.279 164.822L149.611 195.89C152.158 198.429 160.166 205.291 161.474 208.002C167.281 220.04 162.497 233.391 150.587 239.496C124.821 250.3 116.875 210.99 145.448 202.049C140.217 196.604 95.5347 153.222 94.5812 150.456C93.504 147.331 96.2851 145.534 98.9017 144.801C112.363 147.97 113.616 144.655 126.31 143.34ZM130.519 154.365C134.161 153.785 134.947 153.896 138.689 154.365C135.615 151.656 132.876 150.543 128.769 150.384C129.911 151.266 130.301 152.048 130.689 153.444L130.519 154.365ZM113.121 158.73L113.575 158.09C112.939 156.055 112.168 155.25 110.236 154.365L107.055 154.365C108.968 156.103 110.668 157.84 113.121 158.73Z"/><path fill="#D62828" transform="scale(2 2)" d="M148.377 208.287C161.234 207.426 159.12 232.222 142.735 234.405C130.087 234.596 131.431 211.856 148.377 208.287Z"/><path fill="#F77F00" transform="scale(2 2)" d="M110.236 154.365C113.297 152.932 125.224 150.506 128.769 150.384C129.911 151.266 130.301 152.048 130.689 153.444L130.519 154.365C125.474 154.92 118.624 157.507 113.121 158.73L113.575 158.09C112.939 156.055 112.168 155.25 110.236 154.365Z"/><path fill="#003049" transform="scale(2 2)" d="M168.285 74.2645C172.801 74.0402 176.846 78.7739 181.377 80.1966C186.286 81.7378 191.088 81.5094 195.881 83.6065C215.573 92.2214 214.801 127.893 200.602 108.005C196.244 101.902 187 100.736 179.877 99.8222C184.167 112.956 190.25 125.857 194.495 139.08C197.038 147.001 200.618 149.884 197.738 158.73C190.189 178.095 159.405 180.107 158.913 160.246C158.552 145.728 173.362 138.25 186.257 137.982C184.819 133.814 182.912 129.233 181.36 124.997L172.047 99.3271C169.476 92.4437 160.332 77.0334 168.285 74.2645Z"/><path fill="#E74C2B" transform="scale(2 2)" d="M181.811 144.801C196.477 143.193 195.097 159.766 177.312 167.923C158.454 167.955 164.616 148.31 181.811 144.801Z"/><path fill="#F77F00" transform="scale(2 2)" d="M174.965 85.5434C184.247 88.7446 199.865 88.9958 201.781 99.8222C200.077 99.0814 197.509 96.2137 194.205 95.2135C188.397 93.4549 182.663 94.2605 177.312 91.5467C176.476 89.5435 175.73 87.5719 174.965 85.5434Z"/><path fill="#003049" transform="scale(2 2)" d="M223.552 137.982C227.854 137.458 228.235 144.744 230.362 148.017C235.834 156.436 245.276 157.79 249.192 167.772C252.214 175.473 251.524 188.358 242.749 191.926C235.863 189.147 243.851 178.563 223.552 169.118C222.858 177.685 221.8 186.262 220.979 194.848C220.113 203.904 220.9 213.321 215.806 221.208C201.481 239.446 172.076 226.557 178.918 208.208C184.474 193.311 201.22 193.489 213.747 198.366C213.327 192.939 214.322 186.975 214.888 181.528L216.755 163.117C217.621 155.183 216.06 140.025 223.552 137.982Z"/><path fill="#D62828" transform="scale(2 2)" d="M197.738 202.049C217.877 200.699 217.155 218.07 199.983 223.121C183.362 225.109 177.445 205.975 197.738 202.049Z"/><path fill="#F77F00" transform="scale(2 2)" d="M224.554 153.134C225.789 154.006 228.141 157.157 229.367 158.128C234.602 162.279 246.447 168.896 243.573 177.849C240.624 170.087 232.041 164.623 224.554 161.883C224.509 158.917 224.474 156.102 224.554 153.134Z"/><path fill="#003049" transform="scale(2 2)" d="M466.582 258.48C475.383 259.126 467.217 274.507 465.394 280.563L454.948 315.423C453.724 319.521 451.771 329.313 449.21 332.267C440.068 342.815 424.788 340.281 416.092 331.206C401.473 312.924 427.612 293.727 448.204 312.304L458.904 276.836C460.335 272.146 462.418 260.17 466.582 258.48Z"/><path fill="#D62828" transform="scale(2 2)" d="M429.922 312.304C440.733 308.964 455.082 329.245 435.287 331.812C417.543 331.632 411.671 313.853 429.922 312.304Z"/></svg>